<svg width="2048" height="2048" xmlns="http://www.w3.org/2000/svg" xml:space="preserve" version="1.1">
 <defs>
  <linearGradient y2="0.98881" x2="0.5003" y1="0.00762" x1="0.49969" id="SVGID_1_">
   <stop stop-color="#3A586E" offset="0"/>
   <stop stop-color="#091A25" offset="1"/>
  </linearGradient>
  <linearGradient y2="0.98881" x2="0.5003" y1="0.00762" x1="0.49969" id="SVGID_00000061453974460582240460000013978444405266277551_">
   <stop stop-color="#3A586E" offset="0"/>
   <stop stop-color="#091A25" offset="1"/>
  </linearGradient>
  <linearGradient y2="0.9884" x2="0.50023" y1="0.00699" x1="0.4997" id="SVGID_00000041258007941059368520000001909934333948587678_">
   <stop stop-color="#2E4855" offset="0"/>
   <stop stop-color="#091A25" offset="1"/>
  </linearGradient>
  <linearGradient y2="0.98836" x2="0.50033" y1="0.00768" x1="0.49978" id="SVGID_00000180348313388371406900000001661831234954099380_">
   <stop stop-color="#2E4855" offset="0"/>
   <stop stop-color="#091A25" offset="1"/>
  </linearGradient>
  <linearGradient y2="0.98897" x2="0.5003" y1="0.00747" x1="0.49969" id="SVGID_00000158019594668008506670000013024634149451781308_">
   <stop stop-color="#3A586E" offset="0"/>
   <stop stop-color="#091A25" offset="1"/>
  </linearGradient>
  <linearGradient y2="0.9884" x2="0.50023" y1="0.00699" x1="0.4997" id="SVGID_00000168079651045080273850000014169398800338639007_">
   <stop stop-color="#2E4855" offset="0"/>
   <stop stop-color="#091A25" offset="1"/>
  </linearGradient>
  <linearGradient y2="0.98882" x2="0.5003" y1="0.00762" x1="0.49969" id="SVGID_00000074434940823970588490000001576308957123358594_">
   <stop stop-color="#3A586E" offset="0"/>
   <stop stop-color="#091A25" offset="1"/>
  </linearGradient>
  <linearGradient y2="0.98897" x2="0.5003" y1="0.00747" x1="0.49969" id="SVGID_00000160153938206553241640000003036965914841254312_">
   <stop stop-color="#3A586E" offset="0"/>
   <stop stop-color="#091A25" offset="1"/>
  </linearGradient>
  <linearGradient y2="0.9884" x2="0.50024" y1="0.00699" x1="0.49968" id="SVGID_00000146492918538963439720000001427833777478406050_">
   <stop stop-color="#2E4855" offset="0"/>
   <stop stop-color="#091A25" offset="1"/>
  </linearGradient>
  <linearGradient y2="0.50002" x2="1.00004" y1="0.50002" x1="-0.00005" id="SVGID_00000030462306466079510230000016094647513224078495_">
   <stop stop-color="#2E4855" offset="0"/>
   <stop stop-color="#091A25" offset="1"/>
  </linearGradient>
  <linearGradient y2="0.98897" x2="0.5003" y1="0.00747" x1="0.49969" id="SVGID_00000057148637785856808760000000143638426450772925_">
   <stop stop-color="#3A586E" offset="0"/>
   <stop stop-color="#091A25" offset="1"/>
  </linearGradient>
  <linearGradient y2="0.9884" x2="0.50024" y1="0.00699" x1="0.49968" id="SVGID_00000164511024536889438290000008428198383280770186_">
   <stop stop-color="#2E4855" offset="0"/>
   <stop stop-color="#091A25" offset="1"/>
  </linearGradient>
  <linearGradient y2="0.08062" x2="0.98797" y1="0.94286" x1="0.03861" id="SVGID_00000034053725710390412390000013730004577217787045_">
   <stop stop-color="#2E4855" offset="0"/>
   <stop stop-color="#091A25" offset="1"/>
  </linearGradient>
  <linearGradient y2="0.10055" x2="1.00208" y1="0.92493" x1="0.0275" id="SVGID_00000123441385418860465200000001560213448024224947_">
   <stop stop-color="#2E4855" offset="0"/>
   <stop stop-color="#091A25" offset="1"/>
  </linearGradient>
  <linearGradient y2="0.98839" x2="0.50033" y1="0.00769" x1="0.49978" id="SVGID_00000118385194195780221280000012117370516793371267_">
   <stop stop-color="#2E4855" offset="0"/>
   <stop stop-color="#091A25" offset="1"/>
  </linearGradient>
  <linearGradient y2="0.98882" x2="0.5003" y1="0.00762" x1="0.49969" id="SVGID_00000099632548076386353490000017169994289641995416_">
   <stop stop-color="#3A586E" offset="0"/>
   <stop stop-color="#091A25" offset="1"/>
  </linearGradient>
  <linearGradient y2="0.98836" x2="0.50033" y1="0.00768" x1="0.49978" id="SVGID_00000113353565687615838880000000910431097499206815_">
   <stop stop-color="#2E4855" offset="0"/>
   <stop stop-color="#091A25" offset="1"/>
  </linearGradient>
  <linearGradient y2="0.50002" x2="1.00004" y1="0.50002" x1="-0.00005" id="SVGID_00000141454554529226759140000000968023603220399257_">
   <stop stop-color="#2E4855" offset="0"/>
   <stop stop-color="#091A25" offset="1"/>
  </linearGradient>
  <linearGradient y2="0.5" x2="1" y1="0.5" x1="0" id="SVGID_00000101065564771639041650000004467088844575944893_">
   <stop stop-color="#3A586E" offset="0"/>
   <stop stop-color="#091A25" offset="1"/>
  </linearGradient>
 </defs>
 <g>
  <title>Layer 1</title>
  <path id="svg_1" fill="url(#SVGID_1_)" d="m1950.5,1012.52l0,38.41c0,147.92 -33.88,287.92 -94.3,412.68c-148.34,306.31 -456.69,520.7 -816.45,534.59c-12.36,0.48 -24.77,0.72 -37.24,0.72l-0.01,0c-523.56,0 -948,-424.44 -948,-948l0,-38.41c0,-523.56 424.43,-947.99 947.99,-947.99l0.01,0c523.56,0 948,424.44 948,948z" class="st0"/>
  <path id="svg_2" fill="url(#SVGID_00000061453974460582240460000013978444405266277551_)" d="m-3112.5,1012.52l0,38.4c0,523.57 -424.43,948 -948,948l-0.01,0c-523.56,0 -947.99,-424.43 -947.99,-947.99l0,-38.41c0,-523.57 424.43,-948 948,-948l0,0c523.57,0 948,424.43 948,948z"/>
  <g id="svg_3">
   <path id="svg_4" fill="#FFFFFF" d="m-3654.07,778.85l0,86.16c0,4.08 -2.17,7.86 -5.69,9.9l-31.55,18.33c-3.87,2.26 -8.71,2.04 -12.36,-0.54l-24.98,-17.68c-3.04,-2.15 -4.85,-5.64 -4.85,-9.37l0,-59.86c0,-0.18 -0.01,-0.36 -0.01,-0.54l-0.43,-7.93c-0.52,-9.88 2.54,-19.61 8.62,-27.4l8.45,-10.84c1.56,-2 2.41,-4.49 2.41,-7.04l0,-105c0,-1.19 -0.19,-2.35 -0.54,-3.47l-343.92,160.32c-2.19,1.02 -4.71,1.02 -6.9,0l-389.05,-181.35c-6.28,-2.93 -6.29,-11.84 -0.02,-14.79l383.24,-180.23c2.17,-1.02 4.69,-1.04 6.87,-0.04l289.93,132.49c108.18,26.39 107.25,49.03 107.25,49.03l-0.04,12.51l-0.35,136.23l0,0.06c0,4.6 2.74,8.71 6.97,10.53c4.23,1.79 6.95,5.95 6.95,10.52z" class="st2"/>
   <polygon id="svg_5" fill="url(#SVGID_00000041258007941059368520000001909934333948587678_)" points="-3654.07,615.19 -3667.64,621.51    -3667.6,609  "/>
   <path id="svg_6" fill="#FFFFFF" d="m-4277.89,764.85l0,65.44c0,2.17 1.09,4.2 2.9,5.4l91.68,60.78c70.31,46.62 161.15,48.73 233.55,5.43l104.34,-62.39c1.96,-1.17 3.16,-3.28 3.16,-5.56l0,-68.95c0,-4.89 -5.21,-8.02 -9.52,-5.72l-137.09,72.83c-42.56,22.61 -93.5,22.92 -136.34,0.84l-143.22,-73.85c-4.32,-2.23 -9.46,0.9 -9.46,5.75z" class="st2"/>
   <path id="svg_7" fill="#FFFFFF" d="m-4277.89,926.93l0,372.51c0,39.11 32.07,70.62 71.17,69.93l295.74,-5.19c38.15,-0.67 68.72,-31.78 68.72,-69.93l0,-367.09c0,-6.9 -7.5,-11.19 -13.45,-7.69l-64.92,38.19c-84.24,49.56 -188.56,50.24 -273.43,1.77l-70.49,-40.25c-5.94,-3.39 -13.34,0.9 -13.34,7.75z" class="st2"/>
   <rect id="svg_8" fill="#9CF7E6" height="61.03" width="107.52" class="st4" y="993.35" x="-4448.43"/>
   <rect id="svg_9" fill="#9CF7E6" height="61.03" width="107.52" class="st4" transform="matrix(0.9594 -0.2819 0.2819 0.9594 -555.7496 -1170.1345)" y="1315.9" x="-4398.38"/>
   <rect id="svg_10" fill="#9CF7E6" height="107.52" width="61.03" class="st4" transform="matrix(0.2819 -0.9594 0.9594 0.2819 -4008.3472 -2662.6582)" y="1292.66" x="-3813.46"/>
   <circle id="svg_11" fill="#9CF7E6" r="98.25" cy="1015.59" cx="-4583.75" class="st4"/>
   <rect id="svg_12" fill="#9CF7E6" height="61.03" width="107.52" class="st4" y="993.35" x="-3788.5"/>
   <circle id="svg_13" fill="#9CF7E6" r="98.25" cy="1015.59" cx="-3538.25" class="st4"/>
   <circle id="svg_14" fill="#9CF7E6" r="98.25" cy="1397.27" cx="-3611.67" class="st4"/>
   <circle id="svg_15" fill="#9CF7E6" r="98.25" cy="1538.35" cx="-4057.29" class="st4"/>
   <ellipse id="svg_16" fill="#0C1A25" ry="22.35" rx="33.35" cy="600.35" cx="-4067.29" class="st5"/>
   <circle id="svg_17" fill="#9CF7E6" r="98.25" cy="1397.27" cx="-4514.04" class="st4"/>
   <line id="svg_18" fill="#0C1A25" y2="894.4" x2="-3700.08" y1="894.4" x1="-3697.62" class="st5"/>
  </g>
  <g id="svg_19">
   <path id="svg_20" fill="#FFFFFF" d="m1399.8,799.43l0,79.15c0,3.75 -1.99,7.22 -5.23,9.09l-28.98,16.84c-3.56,2.08 -8,1.87 -11.36,-0.49l-22.95,-16.24c-2.79,-1.98 -4.45,-5.18 -4.45,-8.6l0,-54.98c0,-0.16 -0.01,-0.33 -0.01,-0.49l-0.4,-7.29c-0.48,-9.08 2.33,-18.02 7.92,-25.17l7.77,-9.96c1.43,-1.84 2.21,-4.12 2.21,-6.47l0,-96.45c0,-1.09 -0.17,-2.16 -0.49,-3.18l-315.92,147.26c-2.01,0.94 -4.33,0.94 -6.34,0l-357.37,-166.59c-5.77,-2.69 -5.78,-10.88 -0.02,-13.59l352.04,-165.56c2,-0.94 4.3,-0.95 6.31,-0.03l266.33,121.7c99.38,24.23 98.53,45.02 98.53,45.02l-0.03,11.49l-0.32,125.14l0,0.05c0,4.22 2.52,8 6.4,9.67c3.86,1.66 6.36,5.48 6.36,9.68z" class="st2"/>
   <polygon id="svg_21" fill="url(#SVGID_00000180348313388371406900000001661831234954099380_)" points="1399.8,649.09 1387.34,654.9    1387.37,643.4  "/>
   <path id="svg_22" fill="#FFFFFF" d="m826.77,786.57l0,60.12c0,2 1,3.86 2.66,4.96l84.22,55.84c64.59,42.82 148.03,44.76 214.54,4.99l95.84,-57.31c1.8,-1.07 2.9,-3.02 2.9,-5.11l0,-63.35c0,-4.49 -4.78,-7.36 -8.75,-5.26l-125.93,66.9c-39.1,20.77 -85.89,21.06 -125.24,0.77l-131.56,-67.84c-3.96,-2.04 -8.68,0.83 -8.68,5.29z" class="st2"/>
   <path id="svg_23" fill="#FFFFFF" d="m826.77,935.46l0,342.19c0,35.93 29.46,64.87 65.38,64.24l271.66,-4.77c35.04,-0.62 63.12,-29.2 63.12,-64.24l0,-337.2c0,-6.34 -6.89,-10.28 -12.35,-7.06l-59.63,35.09c-77.38,45.53 -173.21,46.15 -251.17,1.62l-64.75,-36.98c-5.46,-3.13 -12.26,0.81 -12.26,7.11z" class="st2"/>
   <rect id="svg_24" fill="#9CF7E6" height="56.06" width="98.76" class="st4" y="996.47" x="670.11"/>
   <rect id="svg_25" fill="#9CF7E6" height="56.06" width="98.76" class="st4" transform="matrix(0.9594 -0.2819 0.2819 0.9594 -341.2846 269.349)" y="1292.76" x="716.09"/>
   <rect id="svg_26" fill="#9CF7E6" height="98.76" width="56.06" class="st4" transform="matrix(0.2819 -0.9594 0.9594 0.2819 -347.0336 2177.9194)" y="1271.41" x="1253.39"/>
   <circle id="svg_27" fill="#9CF7E6" r="90.25" cy="1016.9" cx="545.8" class="st4"/>
   <rect id="svg_28" fill="#9CF7E6" height="56.06" width="98.76" class="st4" y="996.47" x="1276.32"/>
   <circle id="svg_29" fill="#9CF7E6" r="90.25" cy="1016.9" cx="1506.2" class="st4"/>
   <circle id="svg_30" fill="#9CF7E6" r="90.25" cy="1367.51" cx="1438.76" class="st4"/>
   <circle id="svg_31" fill="#9CF7E6" r="90.25" cy="1497.1" cx="1029.41" class="st4"/>
   <ellipse id="svg_32" fill="#0C1A25" ry="20.53" rx="30.63" cy="635.46" cx="1020.22" class="st5"/>
   <circle id="svg_33" fill="#9CF7E6" r="90.25" cy="1367.51" cx="609.84" class="st4"/>
   <line id="svg_34" fill="#0C1A25" y2="905.57" x2="1357.54" y1="905.57" x1="1359.8" class="st5"/>
  </g>
  <path id="svg_35" fill="url(#SVGID_00000158019594668008506670000013024634149451781308_)" d="m-3112.5,-2049.25l0,1033.94c0,248.66 -201.58,450.23 -450.24,450.23l-995.52,0c-248.66,0 -450.24,-201.57 -450.24,-450.23l0,-1033.94c0,-248.66 201.58,-450.23 450.24,-450.23l995.52,0c248.66,0 450.24,201.57 450.24,450.23z"/>
  <path id="svg_36" fill="#FFFFFF" d="m-3654.07,-1785.15l0,86.16c0,4.08 -2.17,7.86 -5.69,9.9l-31.55,18.33c-3.87,2.26 -8.71,2.04 -12.36,-0.54l-24.98,-17.68c-3.04,-2.15 -4.85,-5.64 -4.85,-9.37l0,-59.86c0,-0.18 -0.01,-0.36 -0.01,-0.54l-0.43,-7.93c-0.52,-9.88 2.54,-19.61 8.62,-27.4l8.45,-10.84c1.56,-2 2.41,-4.49 2.41,-7.04l0,-105c0,-1.19 -0.19,-2.35 -0.54,-3.47l-343.92,160.32c-2.19,1.02 -4.71,1.02 -6.9,0l-389.05,-181.35c-6.28,-2.93 -6.29,-11.84 -0.02,-14.79l383.24,-180.23c2.17,-1.02 4.69,-1.04 6.87,-0.04l289.93,132.49c108.18,26.38 107.26,49.01 107.26,49.01l-0.04,12.51l-0.35,136.23l0,0.06c0,4.6 2.74,8.71 6.97,10.53c4.22,1.81 6.94,5.97 6.94,10.54z" class="st2"/>
  <polygon id="svg_37" fill="url(#SVGID_00000168079651045080273850000014169398800338639007_)" points="-3654.07,-1948.81   -3667.64,-1942.49 -3667.6,-1955 "/>
  <path id="svg_38" fill="#FFFFFF" d="m-4277.89,-1799.15l0,65.44c0,2.17 1.09,4.2 2.9,5.4l91.68,60.78c70.31,46.62 161.15,48.73 233.55,5.43l104.34,-62.39c1.96,-1.17 3.16,-3.28 3.16,-5.56l0,-68.95c0,-4.89 -5.21,-8.02 -9.52,-5.72l-137.09,72.83c-42.56,22.61 -93.5,22.92 -136.34,0.84l-143.22,-73.85c-4.32,-2.23 -9.46,0.9 -9.46,5.75z" class="st2"/>
  <path id="svg_39" fill="#FFFFFF" d="m-4277.89,-1637.07l0,372.51c0,39.11 32.07,70.62 71.17,69.93l295.74,-5.19c38.15,-0.67 68.72,-31.78 68.72,-69.93l0,-367.08c0,-6.9 -7.5,-11.19 -13.45,-7.69l-64.92,38.19c-84.24,49.56 -188.56,50.24 -273.43,1.77l-70.49,-40.25c-5.94,-3.4 -13.34,0.89 -13.34,7.74z" class="st2"/>
  <rect id="svg_40" fill="#9CF7E6" height="61.03" width="107.52" class="st4" y="-1570.65" x="-4448.43"/>
  <rect id="svg_41" fill="#9CF7E6" height="61.03" width="107.52" class="st4" transform="matrix(0.9594 -0.2819 0.2819 0.9594 167.0363 -1274.1189)" y="-1248.1" x="-4398.38"/>
  <rect id="svg_42" fill="#9CF7E6" height="107.52" width="61.03" class="st4" transform="matrix(0.2819 -0.9594 0.9594 0.2819 -1548.3317 -4503.8721)" y="-1271.34" x="-3813.46"/>
  <circle id="svg_43" fill="#9CF7E6" r="98.25" cy="-1548.41" cx="-4583.75" class="st4"/>
  <rect id="svg_44" fill="#9CF7E6" height="61.03" width="107.52" class="st4" y="-1570.65" x="-3788.5"/>
  <circle id="svg_45" fill="#9CF7E6" r="98.25" cy="-1548.41" cx="-3538.25" class="st4"/>
  <circle id="svg_46" fill="#9CF7E6" r="98.25" cy="-1166.73" cx="-3611.67" class="st4"/>
  <circle id="svg_47" fill="#9CF7E6" r="98.25" cy="-1025.65" cx="-4057.29" class="st4"/>
  <ellipse id="svg_48" fill="#0C1A25" ry="22.35" rx="33.35" cy="-1963.65" cx="-4067.29" class="st5"/>
  <circle id="svg_49" fill="#9CF7E6" r="98.25" cy="-1166.73" cx="-4514.04" class="st4"/>
  <line id="svg_50" fill="#0C1A25" y2="-1669.6" x2="-3700.08" y1="-1669.6" x1="-3697.62" class="st5"/>
  <path id="svg_51" fill="url(#SVGID_00000074434940823970588490000001576308957123358594_)" d="m-1455.5,3477.52l0,38.4c0,523.56 -424.43,947.99 -947.99,947.99l0,0c-523.57,0 -948,-424.44 -948,-948l0,-38.4c0,-523.56 424.43,-947.99 947.99,-947.99l0,0c523.56,0 948,424.44 948,948z"/>
  <path id="svg_52" fill="url(#SVGID_00000160153938206553241640000003036965914841254312_)" d="m-702.5,-2049.25l0,1033.94c0,248.66 -201.58,450.23 -450.24,450.23l-995.52,0c-248.66,0 -450.24,-201.57 -450.24,-450.23l0,-1033.94c0,-248.66 201.58,-450.23 450.24,-450.23l995.52,0c248.66,0 450.24,201.57 450.24,450.23z"/>
  <path id="svg_53" fill="#FFFFFF" d="m-1244.07,-1785.15l0,86.16c0,4.08 -2.17,7.86 -5.69,9.9l-31.55,18.33c-3.87,2.26 -8.71,2.04 -12.36,-0.54l-24.98,-17.68c-3.04,-2.15 -4.85,-5.64 -4.85,-9.37l0,-59.86c0,-0.18 -0.01,-0.36 -0.01,-0.54l-0.43,-7.93c-0.52,-9.88 2.54,-19.61 8.62,-27.4l8.45,-10.84c1.56,-2 2.41,-4.49 2.41,-7.04l0,-105c0,-1.19 -0.19,-2.35 -0.54,-3.47l-343.92,160.32c-2.19,1.02 -4.71,1.02 -6.9,0l-389.05,-181.35c-6.28,-2.93 -6.29,-11.84 -0.03,-14.79l383.24,-180.23c2.17,-1.02 4.69,-1.04 6.87,-0.04l289.93,132.49c108.18,26.38 107.26,49.01 107.26,49.01l-0.04,12.51l-0.35,136.23l0,0.06c0,4.6 2.74,8.71 6.97,10.53c4.23,1.81 6.95,5.97 6.95,10.54z" class="st2"/>
  <polygon id="svg_54" fill="url(#SVGID_00000146492918538963439720000001427833777478406050_)" points="-1244.07,-1948.81   -1257.64,-1942.49 -1257.6,-1955 "/>
  <path id="svg_55" fill="#FFFFFF" d="m-1867.89,-1799.15l0,65.44c0,2.17 1.09,4.2 2.9,5.4l91.68,60.78c70.31,46.62 161.15,48.73 233.55,5.43l104.34,-62.39c1.96,-1.17 3.16,-3.28 3.16,-5.56l0,-68.95c0,-4.89 -5.21,-8.02 -9.52,-5.72l-137.09,72.83c-42.56,22.61 -93.5,22.92 -136.34,0.84l-143.22,-73.85c-4.32,-2.23 -9.46,0.9 -9.46,5.75z" class="st2"/>
  <path id="svg_56" fill="#FFFFFF" d="m-1867.89,-1637.07l0,372.51c0,39.11 32.07,70.62 71.17,69.93l295.74,-5.19c38.15,-0.67 68.72,-31.78 68.72,-69.93l0,-367.08c0,-6.9 -7.5,-11.19 -13.45,-7.69l-64.92,38.19c-84.24,49.56 -188.56,50.24 -273.43,1.77l-70.49,-40.25c-5.94,-3.4 -13.34,0.89 -13.34,7.74z" class="st2"/>
  <rect id="svg_57" fill="#9CF7E6" height="61.03" width="107.52" class="st4" y="-1570.65" x="-2038.43"/>
  <rect id="svg_58" fill="#9CF7E6" height="61.03" width="107.52" class="st4" transform="matrix(0.9594 -0.2819 0.2819 0.9594 264.7752 -594.7452)" y="-1248.1" x="-1988.38"/>
  <rect id="svg_59" fill="#9CF7E6" height="107.52" width="61.03" class="st4" transform="matrix(0.2819 -0.9594 0.9594 0.2819 182.2947 -2191.6111)" y="-1271.34" x="-1403.46"/>
  <circle id="svg_60" fill="#9CF7E6" r="98.25" cy="-1548.41" cx="-2173.75" class="st4"/>
  <rect id="svg_61" fill="#9CF7E6" height="61.03" width="107.52" class="st4" y="-1570.65" x="-1378.5"/>
  <circle id="svg_62" fill="#9CF7E6" r="98.25" cy="-1548.41" cx="-1128.25" class="st4"/>
  <circle id="svg_63" fill="#9CF7E6" r="98.25" cy="-1166.73" cx="-1201.67" class="st4"/>
  <circle id="svg_64" fill="#9CF7E6" r="98.25" cy="-1025.65" cx="-1647.29" class="st4"/>
  <ellipse id="svg_65" fill="#0C1A25" ry="22.35" rx="33.35" cy="-1963.65" cx="-1657.29" class="st5"/>
  <circle id="svg_66" fill="#9CF7E6" r="98.25" cy="-1166.73" cx="-2104.04" class="st4"/>
  <line id="svg_67" fill="#0C1A25" y2="-1669.6" x2="-1290.08" y1="-1669.6" x1="-1287.62" class="st5"/>
  <path id="svg_68" fill="#FFFFFF" d="m-702.5,-1219l0,203.69c0,248.66 -201.58,450.23 -450.24,450.23l-159.26,0c0.04,-361.15 272.9,-653.92 609.5,-653.92z" class="st2"/>
  <path id="svg_69" fill="url(#SVGID_00000030462306466079510230000016094647513224078495_)" d="m-1037.68,-745.7c1.14,5.34 1.05,10.66 -0.29,15.95c-1.34,5.3 -3.76,10.46 -7.29,15.47c-3.52,5.02 -7.85,9.65 -12.99,13.91c-7.37,6.11 -14.52,10.25 -21.44,12.43c-6.92,2.18 -13.25,3.1 -18.99,2.75c-5.73,-0.34 -10.74,-1.58 -15.01,-3.69c-4.27,-2.12 -7.44,-4.42 -9.49,-6.9c-2.47,-2.98 -3.46,-5.73 -2.95,-8.24c0.5,-2.51 1.58,-4.45 3.24,-5.83c1.41,-1.17 3.05,-1.79 4.93,-1.89c1.88,-0.09 3.73,0.71 5.56,2.41c3.11,2.74 6.5,4.6 10.19,5.59c3.69,1 7.44,1.27 11.26,0.82c3.82,-0.44 7.61,-1.52 11.36,-3.24c3.75,-1.71 7.24,-3.91 10.47,-6.58c2.57,-2.13 4.98,-4.65 7.24,-7.57c2.26,-2.92 4,-5.96 5.21,-9.14c1.21,-3.17 1.69,-6.39 1.42,-9.66c-0.27,-3.27 -1.6,-6.35 -4,-9.25c-2.61,-3.15 -5.62,-5.05 -9.03,-5.71c-3.41,-0.66 -7.09,-0.54 -11.03,0.34c-3.94,0.89 -8.09,2.34 -12.43,4.34c-4.35,2 -8.8,4.05 -13.35,6.14c-4.55,2.1 -9.14,3.98 -13.76,5.65c-4.62,1.67 -9.16,2.64 -13.62,2.91c-4.46,0.27 -8.75,-0.36 -12.88,-1.89c-4.13,-1.53 -8.02,-4.49 -11.66,-8.88c-3.43,-4.14 -5.6,-8.56 -6.49,-13.27c-0.9,-4.7 -0.7,-9.48 0.59,-14.32c1.29,-4.84 3.61,-9.63 6.95,-14.36c3.34,-4.73 7.58,-9.22 12.72,-13.48c4.97,-4.12 10.05,-7.29 15.27,-9.52c5.21,-2.22 10.18,-3.55 14.92,-3.99c4.74,-0.43 9,-0.05 12.78,1.14c3.78,1.2 6.74,3.08 8.87,5.64c1.79,2.15 2.48,4.47 2.1,6.95c-0.38,2.49 -1.45,4.45 -3.18,5.89c-1.24,1.03 -2.69,1.64 -4.35,1.83c-1.66,0.19 -3.47,-0.23 -5.44,-1.25c-3.05,-1.66 -6.02,-2.58 -8.91,-2.78c-2.88,-0.19 -5.66,0.08 -8.33,0.83c-2.67,0.75 -5.2,1.87 -7.59,3.36c-2.39,1.5 -4.58,3.07 -6.57,4.71c-2.98,2.47 -5.48,5.06 -7.49,7.78c-2.01,2.72 -3.48,5.4 -4.42,8.07c-0.93,2.66 -1.25,5.23 -0.95,7.7c0.3,2.47 1.32,4.75 3.03,6.81c2.33,2.82 5.1,4.43 8.31,4.84c3.21,0.42 6.73,0.08 10.58,-1.02c3.84,-1.09 7.92,-2.66 12.24,-4.7c4.31,-2.04 8.77,-4.13 13.36,-6.26c4.59,-2.13 9.23,-3.99 13.92,-5.57c4.69,-1.58 9.34,-2.47 13.94,-2.65c4.6,-0.18 9.05,0.6 13.36,2.33c4.3,1.74 8.35,4.89 12.12,9.44c4.18,5.08 6.84,10.27 7.99,15.61zm-48.12,-77.87c-1.82,1.51 -3.91,2.16 -6.25,1.94c-2.35,-0.22 -4.28,-1.24 -5.79,-3.06c-1.51,-1.82 -2.14,-3.88 -1.88,-6.19c0.25,-2.3 1.29,-4.21 3.11,-5.72l61.1,-50.66c1.82,-1.51 3.89,-2.17 6.2,-2c2.31,0.18 4.23,1.18 5.73,3c1.51,1.82 2.16,3.91 1.94,6.25c-0.22,2.35 -1.24,4.28 -3.06,5.79l-23.22,19.25l64.35,77.61c1.65,1.99 2.35,4.31 2.1,6.96c-0.25,2.65 -1.37,4.8 -3.35,6.45c-2.07,1.72 -4.41,2.43 -7.02,2.15c-2.61,-0.28 -4.74,-1.42 -6.38,-3.4l-64.35,-77.61l-23.23,19.24zm89.01,-94.97c3.02,0.01 6.01,0.89 8.98,2.61l97.69,54.38c1.31,0.73 2.37,1.6 3.2,2.59c0.62,0.75 1.18,1.68 1.69,2.79c0.51,1.12 0.83,2.35 0.97,3.7c0.14,1.35 -0.07,2.75 -0.62,4.18c-0.56,1.44 -1.58,2.77 -3.07,4.01c-1.74,1.44 -3.8,2.24 -6.18,2.4c-2.38,0.16 -4.62,-0.36 -6.73,-1.54l-27.76,-16.8l-35.76,29.66l12.65,31.43c0.74,1.9 0.77,3.8 0.1,5.68c-0.67,1.89 -1.8,3.48 -3.37,4.78c-2.24,1.85 -4.78,2.71 -7.63,2.55s-5.17,-1.3 -6.95,-3.46c-0.69,-0.83 -1.21,-1.72 -1.58,-2.67l-37.99,-105.97c-1.15,-3.24 -1.45,-6.34 -0.91,-9.31c0.54,-2.97 2.14,-5.55 4.79,-7.74c2.63,-2.19 5.46,-3.28 8.48,-3.27zm25.58,71.42l27.07,-22.45l-48.16,-29.01l21.09,51.46zm106.85,-29.09c1.65,1.99 2.37,4.29 2.16,6.9c-0.21,2.62 -1.35,4.78 -3.41,6.5c-1.99,1.65 -4.31,2.35 -6.96,2.1c-2.65,-0.25 -4.8,-1.36 -6.45,-3.35l-67.13,-80.97c-2.2,-2.65 -3.13,-5.71 -2.81,-9.2c0.32,-3.48 1.85,-6.36 4.58,-8.62l47.69,-39.54c1.82,-1.51 3.89,-2.17 6.2,-2c2.31,0.18 4.23,1.18 5.73,3c1.51,1.82 2.16,3.91 1.94,6.25c-0.22,2.35 -1.24,4.28 -3.06,5.79l-42.84,35.52l22.34,26.95l38.99,-32.33c1.82,-1.51 3.88,-2.14 6.19,-1.88c2.31,0.25 4.22,1.29 5.73,3.11c1.44,1.74 2.07,3.76 1.89,6.08c-0.18,2.31 -1.18,4.23 -3,5.73l-38.99,32.33l31.21,37.63zm72.27,-59.92c1.65,1.99 2.37,4.29 2.16,6.9c-0.21,2.62 -1.35,4.78 -3.41,6.5c-1.99,1.65 -4.31,2.35 -6.96,2.1c-2.65,-0.25 -4.8,-1.36 -6.45,-3.35l-67.13,-80.97c-2.2,-2.65 -3.13,-5.71 -2.81,-9.2c0.32,-3.48 1.85,-6.36 4.58,-8.62l47.69,-39.54c1.82,-1.51 3.89,-2.17 6.2,-2c2.31,0.18 4.23,1.18 5.73,3c1.51,1.82 2.16,3.91 1.94,6.25c-0.22,2.35 -1.24,4.28 -3.06,5.79l-42.84,35.52l22.34,26.95l38.99,-32.33c1.82,-1.51 3.89,-2.14 6.19,-1.88c2.31,0.25 4.22,1.29 5.73,3.11c1.44,1.74 2.07,3.76 1.89,6.08c-0.18,2.31 -1.18,4.23 -3,5.73l-38.99,32.33l31.21,37.63z"/>
  <path id="svg_70" fill="url(#SVGID_00000057148637785856808760000000143638426450772925_)" d="m1950.5,-2049.25l0,1033.94c0,248.66 -201.58,450.23 -450.24,450.23l-995.52,0c-248.66,0 -450.24,-201.57 -450.24,-450.23l0,-1033.94c0,-248.66 201.58,-450.23 450.24,-450.23l995.52,0c248.66,0 450.24,201.57 450.24,450.23z"/>
  <path id="svg_71" fill="#FFFFFF" d="m1408.93,-1785.15l0,86.16c0,4.08 -2.17,7.86 -5.69,9.9l-31.55,18.33c-3.87,2.26 -8.71,2.04 -12.36,-0.54l-24.98,-17.68c-3.04,-2.15 -4.85,-5.64 -4.85,-9.37l0,-59.86c0,-0.18 -0.01,-0.36 -0.01,-0.54l-0.43,-7.93c-0.52,-9.88 2.54,-19.61 8.62,-27.4l8.45,-10.84c1.56,-2 2.41,-4.49 2.41,-7.04l0,-105c0,-1.19 -0.19,-2.35 -0.54,-3.47l-343.92,160.32c-2.19,1.02 -4.71,1.02 -6.9,0l-389.05,-181.35c-6.28,-2.93 -6.29,-11.84 -0.03,-14.79l383.24,-180.23c2.17,-1.02 4.69,-1.04 6.87,-0.04l289.93,132.49c108.18,26.38 107.26,49.01 107.26,49.01l-0.04,12.51l-0.35,136.23l0,0.06c0,4.6 2.74,8.71 6.97,10.53c4.23,1.81 6.95,5.97 6.95,10.54z" class="st2"/>
  <polygon id="svg_72" fill="url(#SVGID_00000164511024536889438290000008428198383280770186_)" points="1408.93,-1948.81   1395.36,-1942.49 1395.4,-1955 "/>
  <path id="svg_73" fill="#FFFFFF" d="m785.11,-1799.15l0,65.44c0,2.17 1.09,4.2 2.9,5.4l91.68,60.78c70.31,46.62 161.15,48.73 233.55,5.43l104.34,-62.39c1.96,-1.17 3.16,-3.28 3.16,-5.56l0,-68.95c0,-4.89 -5.21,-8.02 -9.52,-5.72l-137.09,72.83c-42.56,22.61 -93.5,22.92 -136.34,0.84l-143.22,-73.85c-4.32,-2.23 -9.46,0.9 -9.46,5.75z" class="st2"/>
  <path id="svg_74" fill="#FFFFFF" d="m785.11,-1637.07l0,372.51c0,39.11 32.07,70.62 71.17,69.93l295.74,-5.19c38.15,-0.67 68.72,-31.78 68.72,-69.93l0,-367.08c0,-6.9 -7.5,-11.19 -13.45,-7.69l-64.92,38.19c-84.24,49.56 -188.56,50.24 -273.43,1.77l-70.49,-40.25c-5.94,-3.4 -13.34,0.89 -13.34,7.74z" class="st2"/>
  <rect id="svg_75" fill="#9CF7E6" height="61.03" width="107.52" class="st4" y="-1570.65" x="614.57"/>
  <rect id="svg_76" fill="#9CF7E6" height="61.03" width="107.52" class="st4" transform="matrix(0.9594 -0.2819 0.2819 0.9594 372.3691 153.1296)" y="-1248.1" x="664.62"/>
  <rect id="svg_77" fill="#9CF7E6" height="107.52" width="61.03" class="st4" transform="matrix(0.2819 -0.9594 0.9594 0.2819 2087.4199 353.795)" y="-1271.34" x="1249.54"/>
  <circle id="svg_78" fill="#9CF7E6" r="98.25" cy="-1548.41" cx="479.25" class="st4"/>
  <rect id="svg_79" fill="#9CF7E6" height="61.03" width="107.52" class="st4" y="-1570.65" x="1274.5"/>
  <circle id="svg_80" fill="#9CF7E6" r="98.25" cy="-1548.41" cx="1524.75" class="st4"/>
  <circle id="svg_81" fill="#9CF7E6" r="98.25" cy="-1166.73" cx="1451.33" class="st4"/>
  <circle id="svg_82" fill="#9CF7E6" r="98.25" cy="-1025.65" cx="1005.71" class="st4"/>
  <ellipse id="svg_83" fill="#0C1A25" ry="22.35" rx="33.35" cy="-1963.65" cx="995.71" class="st5"/>
  <circle id="svg_84" fill="#9CF7E6" r="98.25" cy="-1166.73" cx="548.96" class="st4"/>
  <line id="svg_85" fill="#0C1A25" y2="-1669.6" x2="1362.92" y1="-1669.6" x1="1365.38" class="st5"/>
  <path id="svg_86" fill="#FFFFFF" d="m1950.5,-1219l0,203.69c0,248.66 -201.58,450.23 -450.24,450.23l-159.26,0c0.04,-361.15 272.9,-653.92 609.5,-653.92z" class="st2"/>
  <path id="svg_87" fill="url(#SVGID_00000034053725710390412390000013730004577217787045_)" d="m1530.35,-723.35c0.91,4.12 0.86,8.22 -0.15,12.32c-1.01,4.1 -2.86,8.09 -5.56,11.98c-2.7,3.89 -6.02,7.49 -9.96,10.79c-5.66,4.75 -11.16,7.98 -16.49,9.69c-5.34,1.71 -10.22,2.45 -14.64,2.21c-4.43,-0.24 -8.29,-1.17 -11.6,-2.78c-3.31,-1.61 -5.76,-3.38 -7.36,-5.28c-1.92,-2.29 -2.69,-4.4 -2.32,-6.35c0.38,-1.94 1.2,-3.44 2.47,-4.51c1.08,-0.91 2.35,-1.4 3.8,-1.48c1.45,-0.08 2.88,0.53 4.3,1.83c2.41,2.1 5.04,3.52 7.89,4.27c2.85,0.75 5.75,0.95 8.7,0.58c2.95,-0.36 5.87,-1.21 8.75,-2.55c2.89,-1.34 5.57,-3.05 8.05,-5.13c1.97,-1.65 3.82,-3.61 5.55,-5.88c1.73,-2.26 3.06,-4.62 3.98,-7.08c0.92,-2.45 1.27,-4.94 1.05,-7.46c-0.22,-2.52 -1.26,-4.9 -3.13,-7.12c-2.03,-2.42 -4.36,-3.87 -7,-4.37c-2.64,-0.49 -5.47,-0.39 -8.51,0.32c-3.04,0.71 -6.23,1.84 -9.58,3.4c-3.35,1.56 -6.77,3.16 -10.27,4.8c-3.5,1.64 -7.03,3.11 -10.59,4.42c-3.56,1.31 -7.06,2.08 -10.5,2.31c-3.44,0.23 -6.76,-0.24 -9.95,-1.4c-3.2,-1.16 -6.21,-3.43 -9.04,-6.8c-2.67,-3.18 -4.36,-6.58 -5.07,-10.21c-0.71,-3.63 -0.58,-7.31 0.39,-11.06c0.98,-3.74 2.74,-7.45 5.3,-11.11c2.56,-3.66 5.81,-7.15 9.75,-10.46c3.82,-3.2 7.73,-5.67 11.74,-7.41c4.01,-1.74 7.84,-2.79 11.5,-3.15c3.65,-0.36 6.95,-0.08 9.87,0.82c2.93,0.91 5.22,2.34 6.87,4.31c1.39,1.65 1.94,3.44 1.65,5.36c-0.29,1.92 -1.1,3.44 -2.43,4.56c-0.95,0.8 -2.07,1.28 -3.35,1.43c-1.28,0.15 -2.68,-0.16 -4.2,-0.94c-2.36,-1.27 -4.66,-1.97 -6.89,-2.11c-2.23,-0.14 -4.37,0.09 -6.42,0.67c-2.06,0.59 -4,1.46 -5.84,2.63c-1.84,1.17 -3.52,2.39 -5.05,3.67c-2.29,1.92 -4.2,3.93 -5.74,6.04c-1.54,2.11 -2.66,4.19 -3.37,6.24c-0.71,2.06 -0.94,4.04 -0.7,5.95c0.24,1.91 1.04,3.66 2.37,5.24c1.81,2.16 3.96,3.4 6.44,3.7c2.48,0.31 5.2,0.03 8.16,-0.83c2.96,-0.86 6.1,-2.09 9.43,-3.68c3.32,-1.59 6.75,-3.22 10.28,-4.89c3.53,-1.66 7.11,-3.12 10.72,-4.36c3.61,-1.24 7.2,-1.95 10.75,-2.11c3.55,-0.16 6.99,0.42 10.32,1.74c3.33,1.32 6.46,3.73 9.4,7.23c3.24,3.89 5.32,7.89 6.23,12zm-37.49,-59.88c-1.4,1.17 -3,1.68 -4.82,1.52c-1.81,-0.16 -3.31,-0.94 -4.48,-2.34c-1.17,-1.4 -1.67,-2.99 -1.48,-4.77c0.18,-1.78 0.98,-3.26 2.38,-4.43l46.93,-39.38c1.4,-1.17 2.99,-1.7 4.78,-1.57c1.79,0.13 3.27,0.89 4.44,2.29c1.17,1.4 1.68,3.01 1.52,4.82c-0.16,1.81 -0.94,3.31 -2.34,4.48l-17.84,14.97l50.02,59.61c1.28,1.53 1.83,3.31 1.65,5.36c-0.18,2.05 -1.03,3.71 -2.56,4.99c-1.59,1.33 -3.39,1.9 -5.41,1.69c-2.01,-0.2 -3.66,-1.07 -4.94,-2.6l-50.02,-59.61l-17.83,14.97zm102.86,-93.79c-1.33,-1.59 -1.9,-3.39 -1.69,-5.41c0.2,-2.01 1.07,-3.66 2.6,-4.94c1.59,-1.33 3.39,-1.93 5.41,-1.78c2.02,0.15 3.7,1.02 5.03,2.61l37.38,44.54c4.11,4.9 6.73,9.74 7.88,14.52c1.14,4.79 1.2,9.37 0.17,13.76c-1.03,4.39 -3,8.56 -5.91,12.52c-2.91,3.96 -6.3,7.57 -10.18,10.82c-3.94,3.31 -8.1,6.04 -12.47,8.19c-4.37,2.15 -8.81,3.35 -13.31,3.61c-4.5,0.26 -9.01,-0.59 -13.52,-2.55c-4.51,-1.96 -8.82,-5.38 -12.93,-10.28l-37.38,-44.54c-1.33,-1.59 -1.9,-3.39 -1.69,-5.41c0.21,-2.01 1.07,-3.66 2.6,-4.94c1.59,-1.33 3.38,-1.91 5.37,-1.74c1.99,0.18 3.65,1.06 4.98,2.64l37.38,44.54c2.51,2.99 5.17,5.09 7.98,6.31c2.81,1.22 5.62,1.73 8.44,1.53c2.82,-0.19 5.61,-0.97 8.38,-2.32c2.77,-1.35 5.36,-3.04 7.78,-5.06c2.42,-2.03 4.51,-4.27 6.29,-6.74c1.78,-2.47 3.01,-5.07 3.69,-7.81c0.68,-2.74 0.67,-5.6 -0.04,-8.58c-0.71,-2.98 -2.32,-5.96 -4.83,-8.95l-37.41,-44.54zm86.09,46.42c-0.95,0.8 -2.02,1.4 -3.21,1.8c-1.18,0.4 -2.39,0.57 -3.63,0.52c-1.23,-0.05 -2.47,-0.36 -3.72,-0.94c-1.25,-0.58 -2.35,-1.44 -3.31,-2.59l-50.58,-60.28c-1.71,-2.03 -2.44,-4.4 -2.21,-7.09c0.24,-2.69 1.4,-4.92 3.5,-6.68l22.61,-18.97c3.75,-3.15 8.04,-5.66 12.86,-7.54c4.82,-1.87 9.96,-2.59 15.43,-2.14c5.47,0.45 11.14,2.3 17.01,5.55c5.87,3.26 11.74,8.38 17.61,15.37c5.92,7.06 9.98,13.76 12.16,20.11c2.18,6.35 3.02,12.26 2.51,17.72c-0.51,5.47 -2.1,10.41 -4.79,14.83c-2.69,4.42 -5.9,8.2 -9.66,11.35l-22.58,18.98zm-51.03,-68.36l46.34,55.23l16.69,-14.01c3.75,-3.15 6.48,-6.55 8.18,-10.2c1.7,-3.65 2.48,-7.44 2.32,-11.37c-0.16,-3.93 -1.22,-7.97 -3.18,-12.12c-1.96,-4.15 -4.73,-8.35 -8.31,-12.61c-3.52,-4.2 -7.16,-7.62 -10.9,-10.28c-3.74,-2.65 -7.54,-4.4 -11.38,-5.24c-3.85,-0.84 -7.71,-0.73 -11.61,0.31c-3.89,1.05 -7.71,3.14 -11.46,6.29l-16.69,14zm118.84,11.46c-0.95,0.8 -2.02,1.4 -3.21,1.8c-1.18,0.4 -2.39,0.57 -3.63,0.52c-1.23,-0.05 -2.47,-0.36 -3.72,-0.94c-1.25,-0.58 -2.35,-1.44 -3.31,-2.59l-50.58,-60.28c-1.71,-2.03 -2.44,-4.4 -2.21,-7.09c0.24,-2.69 1.4,-4.92 3.5,-6.68l43.21,-36.25c1.4,-1.17 2.98,-1.68 4.73,-1.53c1.75,0.15 3.22,0.93 4.39,2.33c1.17,1.4 1.7,2.99 1.57,4.78c-0.13,1.79 -0.89,3.27 -2.29,4.44l-39.49,33.13l17.37,20.7l37.1,-31.13c1.4,-1.17 2.99,-1.67 4.77,-1.48c1.78,0.19 3.26,0.98 4.43,2.38c1.12,1.34 1.62,2.9 1.49,4.68c-0.13,1.79 -0.89,3.27 -2.29,4.44l-37.1,31.13l20.57,24.51l40.25,-33.77c1.34,-1.12 2.91,-1.6 4.72,-1.44c1.81,0.16 3.31,0.94 4.48,2.34c1.17,1.4 1.67,2.99 1.48,4.77c-0.19,1.78 -0.95,3.23 -2.28,4.35l-43.95,36.88zm102.97,-88.42c-1.87,0.22 -3.9,0 -6.08,-0.66l-76.9,-22.11l41.78,49.79c1.28,1.53 1.85,3.3 1.7,5.32c-0.15,2.02 -1.02,3.7 -2.61,5.03c-1.53,1.28 -3.31,1.83 -5.36,1.65c-2.05,-0.18 -3.71,-1.03 -4.99,-2.56l-53.7,-64c-1.33,-1.59 -1.9,-3.39 -1.69,-5.41c0.21,-2.01 1.07,-3.66 2.6,-4.94c1.78,-1.49 3.61,-2.35 5.48,-2.57c1.88,-0.22 3.94,-0.02 6.18,0.59l77.12,22.57l-42.1,-50.17c-1.33,-1.59 -1.91,-3.38 -1.74,-5.37c0.17,-1.99 1.06,-3.65 2.65,-4.98c1.59,-1.33 3.38,-1.91 5.37,-1.74c1.99,0.18 3.65,1.06 4.98,2.65l53.7,64c1.28,1.53 1.85,3.3 1.7,5.32c-0.15,2.02 -1.02,3.7 -2.61,5.03c-1.78,1.48 -3.6,2.34 -5.48,2.56zm-32.95,-81.5c-1.4,1.17 -3,1.68 -4.82,1.52c-1.81,-0.16 -3.31,-0.94 -4.48,-2.34c-1.17,-1.4 -1.67,-2.99 -1.48,-4.77c0.18,-1.78 0.98,-3.26 2.38,-4.43l46.93,-39.38c1.4,-1.17 2.99,-1.7 4.78,-1.57c1.79,0.13 3.27,0.89 4.44,2.29c1.17,1.4 1.68,3.01 1.52,4.82c-0.16,1.81 -0.94,3.31 -2.34,4.48l-17.84,14.97l50.02,59.61c1.28,1.53 1.83,3.31 1.65,5.36c-0.18,2.05 -1.03,3.71 -2.56,4.99c-1.59,1.33 -3.39,1.9 -5.41,1.69c-2.01,-0.2 -3.66,-1.07 -4.94,-2.6l-50.02,-59.61l-17.83,14.97z"/>
  <path id="svg_88" fill="#FFFFFF" d="m1856.2,1463.61c-148.34,306.31 -456.69,520.7 -816.45,534.59c-8.99,-38.27 -13.75,-78.18 -13.75,-119.2c0,-286.64 232.36,-519 519,-519c116.75,0 224.49,38.55 311.2,103.61z" class="st2"/>
  <path id="svg_89" fill="url(#SVGID_00000123441385418860465200000001560213448024224947_)" d="m1229.98,1811.42c0.48,4.98 -0.16,9.81 -1.94,14.5c-1.77,4.68 -4.53,9.13 -8.26,13.32c-3.74,4.2 -8.16,7.97 -13.28,11.3c-7.35,4.79 -14.29,7.81 -20.82,9.07c-6.53,1.26 -12.39,1.43 -17.58,0.51c-5.18,-0.91 -9.61,-2.56 -13.28,-4.94c-3.67,-2.38 -6.31,-4.8 -7.92,-7.28c-1.94,-2.97 -2.55,-5.58 -1.82,-7.81c0.72,-2.23 1.9,-3.89 3.56,-4.97c1.4,-0.91 2.97,-1.31 4.69,-1.2c1.72,0.11 3.32,1.04 4.81,2.78c2.54,2.82 5.44,4.87 8.69,6.16c3.25,1.29 6.64,1.94 10.17,1.93c3.53,0 7.09,-0.59 10.68,-1.75c3.59,-1.16 7,-2.8 10.22,-4.9c2.56,-1.67 5.02,-3.71 7.38,-6.14c2.36,-2.42 4.26,-5.01 5.7,-7.77c1.44,-2.76 2.2,-5.64 2.3,-8.65c0.1,-3 -0.79,-5.95 -2.68,-8.84c-2.04,-3.14 -4.59,-5.19 -7.62,-6.15c-3.04,-0.96 -6.4,-1.24 -10.08,-0.84c-3.68,0.4 -7.61,1.28 -11.78,2.65c-4.17,1.37 -8.44,2.76 -12.8,4.19c-4.36,1.43 -8.73,2.67 -13.12,3.7c-4.38,1.04 -8.62,1.44 -12.7,1.22c-4.09,-0.22 -7.93,-1.24 -11.53,-3.07c-3.6,-1.83 -6.83,-4.93 -9.68,-9.31c-2.69,-4.13 -4.2,-8.38 -4.52,-12.76c-0.32,-4.38 0.36,-8.7 2.04,-12.98c1.68,-4.27 4.3,-8.39 7.84,-12.34c3.54,-3.95 7.87,-7.6 12.99,-10.94c4.95,-3.23 9.92,-5.58 14.9,-7.06c4.98,-1.48 9.64,-2.17 14,-2.07c4.36,0.1 8.2,0.89 11.52,2.38c3.32,1.48 5.81,3.51 7.48,6.07c1.4,2.15 1.79,4.33 1.18,6.55c-0.61,2.22 -1.78,3.9 -3.52,5.03c-1.24,0.81 -2.62,1.21 -4.15,1.21c-1.53,0 -3.14,-0.57 -4.82,-1.71c-2.61,-1.83 -5.21,-2.99 -7.82,-3.46c-2.61,-0.48 -5.16,-0.52 -7.67,-0.12c-2.51,0.4 -4.93,1.15 -7.26,2.26c-2.34,1.11 -4.49,2.31 -6.48,3.6c-2.97,1.94 -5.52,4.04 -7.63,6.3c-2.12,2.26 -3.74,4.55 -4.87,6.88c-1.13,2.33 -1.69,4.63 -1.67,6.91c0.02,2.28 0.7,4.46 2.04,6.52c1.83,2.81 4.18,4.57 7.06,5.28c2.88,0.72 6.12,0.78 9.74,0.18c3.61,-0.59 7.49,-1.59 11.64,-2.99c4.14,-1.4 8.41,-2.84 12.82,-4.3c4.4,-1.46 8.82,-2.66 13.26,-3.61c4.44,-0.95 8.76,-1.27 12.97,-0.95c4.21,0.32 8.18,1.49 11.92,3.53c3.74,2.04 7.09,5.32 10.05,9.86c3.29,5.03 5.17,10.04 5.65,15.02zm-35.64,-75.95c-1.82,1.18 -3.78,1.55 -5.9,1.11c-2.11,-0.44 -3.76,-1.58 -4.95,-3.39c-1.18,-1.82 -1.54,-3.76 -1.07,-5.83c0.47,-2.07 1.62,-3.7 3.43,-4.89l60.94,-39.71c1.81,-1.18 3.77,-1.57 5.86,-1.17c2.09,0.4 3.72,1.52 4.91,3.33c1.18,1.82 1.55,3.78 1.11,5.9c-0.45,2.12 -1.58,3.76 -3.39,4.95l-23.16,15.09l50.45,77.41c1.29,1.98 1.69,4.17 1.18,6.55c-0.5,2.39 -1.75,4.23 -3.73,5.52c-2.06,1.35 -4.27,1.75 -6.61,1.22c-2.35,-0.53 -4.16,-1.79 -5.46,-3.77l-50.45,-77.41l-23.16,15.09zm134.64,-95.86c-1.34,-2.06 -1.75,-4.27 -1.22,-6.61c0.53,-2.34 1.79,-4.16 3.77,-5.46c2.06,-1.34 4.28,-1.79 6.64,-1.32c2.36,0.46 4.21,1.73 5.56,3.79l37.7,57.84c4.14,6.36 6.55,12.44 7.21,18.24c0.66,5.8 0.07,11.22 -1.77,16.24c-1.84,5.03 -4.76,9.66 -8.76,13.91c-4,4.25 -8.51,8.02 -13.55,11.3c-5.12,3.34 -10.41,5.96 -15.87,7.87c-5.46,1.91 -10.86,2.7 -16.2,2.35c-5.34,-0.34 -10.53,-1.99 -15.57,-4.94c-5.04,-2.95 -9.63,-7.6 -13.78,-13.96l-37.7,-57.84c-1.34,-2.06 -1.75,-4.27 -1.22,-6.61c0.53,-2.34 1.79,-4.16 3.77,-5.46c2.06,-1.34 4.25,-1.77 6.57,-1.28c2.32,0.49 4.15,1.77 5.5,3.83l37.7,57.84c2.53,3.88 5.36,6.74 8.5,8.58c3.14,1.84 6.38,2.84 9.73,3.01c3.35,0.17 6.75,-0.34 10.21,-1.53c3.46,-1.19 6.75,-2.81 9.89,-4.86c3.14,-2.04 5.93,-4.39 8.38,-7.05c2.45,-2.65 4.27,-5.54 5.46,-8.68c1.19,-3.13 1.59,-6.5 1.17,-10.12c-0.41,-3.61 -1.88,-7.36 -4.41,-11.24l-37.71,-57.84zm94.84,67.01c-1.24,0.81 -2.58,1.36 -4.04,1.66c-1.45,0.3 -2.9,0.33 -4.35,0.1c-1.45,-0.23 -2.86,-0.78 -4.25,-1.64c-1.39,-0.86 -2.56,-2.04 -3.53,-3.52l-51.01,-78.28c-1.72,-2.64 -2.25,-5.53 -1.59,-8.67c0.66,-3.14 2.35,-5.59 5.08,-7.37l29.35,-19.13c4.87,-3.17 10.28,-5.52 16.23,-7.05c5.95,-1.52 12.11,-1.63 18.5,-0.32c6.38,1.31 12.8,4.3 19.26,8.98c6.46,4.68 12.65,11.55 18.57,20.64c5.97,9.17 9.79,17.65 11.46,25.44c1.67,7.8 1.81,14.88 0.43,21.25c-1.38,6.37 -3.97,11.97 -7.76,16.79c-3.8,4.83 -8.13,8.83 -13,12l-29.35,19.12zm-50.38,-87.87l46.74,71.72l21.68,-14.13c4.87,-3.17 8.57,-6.79 11.1,-10.85c2.53,-4.06 3.98,-8.42 4.36,-13.08c0.38,-4.66 -0.3,-9.57 -2.02,-14.74c-1.72,-5.17 -4.39,-10.52 -7.99,-16.06c-3.55,-5.45 -7.35,-10.01 -11.38,-13.67c-4.04,-3.66 -8.26,-6.26 -12.67,-7.8c-4.41,-1.54 -8.99,-1.97 -13.72,-1.29c-4.74,0.68 -9.54,2.6 -14.41,5.77l-21.69,14.13zm138.45,30.48c-1.24,0.81 -2.58,1.36 -4.04,1.66c-1.45,0.3 -2.9,0.33 -4.35,0.1c-1.45,-0.23 -2.86,-0.78 -4.25,-1.64c-1.39,-0.86 -2.56,-2.04 -3.53,-3.52l-51.01,-78.28c-1.72,-2.64 -2.25,-5.53 -1.59,-8.67c0.66,-3.14 2.35,-5.59 5.08,-7.37l56.11,-36.57c1.82,-1.18 3.75,-1.56 5.79,-1.13c2.05,0.43 3.66,1.56 4.84,3.37c1.18,1.82 1.57,3.77 1.17,5.86c-0.4,2.09 -1.52,3.72 -3.33,4.91l-51.28,33.42l17.52,26.88l48.18,-31.4c1.82,-1.18 3.76,-1.54 5.83,-1.07c2.07,0.47 3.7,1.62 4.89,3.43c1.13,1.73 1.49,3.65 1.09,5.73c-0.4,2.09 -1.52,3.72 -3.33,4.91l-48.18,31.4l20.74,31.83l52.27,-34.06c1.73,-1.13 3.66,-1.47 5.77,-1.03c2.11,0.45 3.76,1.58 4.95,3.39c1.18,1.82 1.54,3.76 1.07,5.83c-0.47,2.07 -1.58,3.67 -3.31,4.8l-57.1,37.22zm133.99,-89.53c-2.24,-0.01 -4.6,-0.56 -7.08,-1.65l-87.49,-37.04l42.13,64.66c1.29,1.98 1.71,4.15 1.24,6.51c-0.46,2.36 -1.73,4.21 -3.79,5.56c-1.98,1.29 -4.17,1.69 -6.55,1.18c-2.39,-0.5 -4.23,-1.75 -5.52,-3.73l-54.16,-83.11c-1.34,-2.06 -1.75,-4.27 -1.22,-6.61c0.53,-2.34 1.79,-4.16 3.77,-5.46c2.31,-1.51 4.59,-2.25 6.83,-2.25c2.24,0.01 4.64,0.53 7.2,1.57l87.69,37.62l-42.46,-65.15c-1.34,-2.06 -1.77,-4.25 -1.28,-6.57c0.49,-2.32 1.76,-4.15 3.83,-5.5c2.06,-1.34 4.26,-1.77 6.57,-1.28c2.32,0.49 4.15,1.77 5.5,3.83l54.16,83.11c1.29,1.98 1.71,4.15 1.24,6.51c-0.46,2.36 -1.73,4.21 -3.79,5.56c-2.3,1.5 -4.57,2.25 -6.82,2.24zm-27.2,-100.77c-1.82,1.18 -3.78,1.55 -5.9,1.11c-2.11,-0.44 -3.76,-1.58 -4.95,-3.39c-1.18,-1.82 -1.54,-3.76 -1.07,-5.83c0.47,-2.07 1.62,-3.7 3.43,-4.89l60.94,-39.71c1.81,-1.18 3.77,-1.57 5.86,-1.17c2.09,0.4 3.72,1.52 4.91,3.33c1.18,1.82 1.55,3.78 1.11,5.9c-0.45,2.12 -1.58,3.76 -3.39,4.95l-23.16,15.09l50.45,77.41c1.29,1.98 1.69,4.17 1.18,6.55c-0.5,2.39 -1.75,4.23 -3.73,5.52c-2.06,1.35 -4.27,1.75 -6.61,1.22c-2.35,-0.53 -4.16,-1.79 -5.46,-3.77l-50.45,-77.41l-23.16,15.09z"/>
  <g id="svg_90">
   <path id="svg_91" fill="#FFFFFF" d="m-2024.2,3244.43l0,79.15c0,3.75 -1.99,7.22 -5.23,9.09l-28.98,16.84c-3.56,2.08 -8,1.87 -11.36,-0.49l-22.95,-16.24c-2.79,-1.98 -4.45,-5.18 -4.45,-8.6l0,-54.98c0,-0.17 -0.01,-0.33 -0.01,-0.49l-0.4,-7.29c-0.48,-9.08 2.33,-18.02 7.92,-25.17l7.77,-9.96c1.43,-1.84 2.21,-4.12 2.21,-6.47l0,-96.45c0,-1.09 -0.17,-2.16 -0.49,-3.18l-315.92,147.26c-2.01,0.94 -4.33,0.94 -6.34,0l-357.38,-166.58c-5.77,-2.69 -5.78,-10.88 -0.02,-13.59l352.04,-165.56c2,-0.94 4.3,-0.95 6.31,-0.03l266.33,121.7c99.38,24.23 98.53,45.02 98.53,45.02l-0.03,11.49l-0.32,125.14l0,0.05c0,4.22 2.52,8 6.4,9.67c3.87,1.65 6.37,5.47 6.37,9.67z" class="st2"/>
   <polygon id="svg_92" fill="url(#SVGID_00000118385194195780221280000012117370516793371267_)" points="-2024.2,3094.09 -2036.66,3099.9    -2036.63,3088.4  "/>
   <path id="svg_93" fill="#FFFFFF" d="m-2597.23,3231.57l0,60.12c0,2 1,3.86 2.66,4.96l84.22,55.84c64.59,42.82 148.03,44.76 214.54,4.99l95.84,-57.31c1.8,-1.07 2.9,-3.02 2.9,-5.11l0,-63.35c0,-4.49 -4.78,-7.36 -8.75,-5.26l-125.93,66.9c-39.1,20.77 -85.89,21.06 -125.24,0.77l-131.56,-67.84c-3.96,-2.04 -8.68,0.83 -8.68,5.29z" class="st2"/>
   <path id="svg_94" fill="#FFFFFF" d="m-2597.23,3380.46l0,342.19c0,35.93 29.46,64.87 65.38,64.24l271.66,-4.77c35.04,-0.62 63.12,-29.2 63.12,-64.24l0,-337.2c0,-6.34 -6.89,-10.28 -12.35,-7.06l-59.63,35.09c-77.38,45.53 -173.21,46.15 -251.17,1.62l-64.75,-36.98c-5.46,-3.13 -12.26,0.81 -12.26,7.11z" class="st2"/>
   <rect id="svg_95" fill="#9CF7E6" height="56.06" width="98.76" class="st4" y="3441.47" x="-2753.89"/>
   <rect id="svg_96" fill="#9CF7E6" height="56.06" width="98.76" class="st4" transform="matrix(0.9594 -0.2819 0.2819 0.9594 -1169.387 -596.7107)" y="3737.76" x="-2707.91"/>
   <rect id="svg_97" fill="#9CF7E6" height="98.76" width="56.06" class="st4" transform="matrix(0.2819 -0.9594 0.9594 0.2819 -5151.6572 648.5416)" y="3716.41" x="-2170.61"/>
   <circle id="svg_98" fill="#9CF7E6" r="90.25" cy="3461.9" cx="-2878.2" class="st4"/>
   <rect id="svg_99" fill="#9CF7E6" height="56.06" width="98.76" class="st4" y="3441.47" x="-2147.68"/>
   <circle id="svg_100" fill="#9CF7E6" r="90.25" cy="3461.9" cx="-1917.8" class="st4"/>
   <circle id="svg_101" fill="#9CF7E6" r="90.25" cy="3812.51" cx="-1985.24" class="st4"/>
   <circle id="svg_102" fill="#9CF7E6" r="90.25" cy="3942.1" cx="-2394.59" class="st4"/>
   <ellipse id="svg_103" fill="#0C1A25" ry="20.53" rx="30.63" cy="3080.46" cx="-2403.78" class="st5"/>
   <circle id="svg_104" fill="#9CF7E6" r="90.25" cy="3812.51" cx="-2814.16" class="st4"/>
   <line id="svg_105" fill="#0C1A25" y2="3350.57" x2="-2066.46" y1="3350.57" x1="-2064.2" class="st5"/>
  </g>
  <path id="svg_106" fill="url(#SVGID_00000099632548076386353490000017169994289641995416_)" d="m-702.5,1012.52l0,38.4c0,523.56 -424.43,947.99 -947.99,947.99l0,0c-523.57,0 -948,-424.44 -948,-948l0,-38.4c0,-523.56 424.43,-947.99 947.99,-947.99l0,0c523.56,0 948,424.44 948,948z"/>
  <g id="svg_107">
   <path id="svg_108" fill="#FFFFFF" d="m-1271.2,779.43l0,79.15c0,3.75 -1.99,7.22 -5.23,9.09l-28.98,16.84c-3.56,2.08 -8,1.87 -11.36,-0.49l-22.95,-16.24c-2.79,-1.98 -4.45,-5.18 -4.45,-8.6l0,-54.98c0,-0.16 -0.01,-0.33 -0.01,-0.49l-0.4,-7.29c-0.48,-9.08 2.33,-18.02 7.92,-25.17l7.77,-9.96c1.43,-1.84 2.21,-4.12 2.21,-6.47l0,-96.45c0,-1.09 -0.17,-2.16 -0.49,-3.18l-315.92,147.26c-2.01,0.94 -4.33,0.94 -6.34,0l-357.38,-166.58c-5.77,-2.69 -5.78,-10.88 -0.02,-13.59l352.04,-165.56c2,-0.94 4.3,-0.95 6.31,-0.03l266.33,121.7c99.38,24.23 98.53,45.02 98.53,45.02l-0.03,11.49l-0.32,125.14l0,0.05c0,4.22 2.52,8 6.4,9.67c3.87,1.65 6.37,5.47 6.37,9.67z" class="st2"/>
   <polygon id="svg_109" fill="url(#SVGID_00000113353565687615838880000000910431097499206815_)" points="-1271.2,629.09 -1283.66,634.9    -1283.63,623.4  "/>
   <path id="svg_110" fill="#FFFFFF" d="m-1844.23,766.57l0,60.12c0,2 1,3.86 2.66,4.96l84.22,55.84c64.59,42.82 148.03,44.76 214.54,4.99l95.84,-57.31c1.8,-1.07 2.9,-3.02 2.9,-5.11l0,-63.35c0,-4.49 -4.78,-7.36 -8.75,-5.26l-125.93,66.9c-39.1,20.77 -85.89,21.06 -125.24,0.77l-131.56,-67.84c-3.96,-2.04 -8.68,0.83 -8.68,5.29z" class="st2"/>
   <path id="svg_111" fill="#FFFFFF" d="m-1844.23,915.46l0,342.19c0,35.93 29.46,64.87 65.38,64.24l271.66,-4.77c35.04,-0.62 63.12,-29.2 63.12,-64.24l0,-337.2c0,-6.34 -6.89,-10.28 -12.35,-7.06l-59.63,35.09c-77.38,45.53 -173.21,46.15 -251.17,1.62l-64.75,-36.98c-5.46,-3.13 -12.26,0.81 -12.26,7.11z" class="st2"/>
   <rect id="svg_112" fill="#9CF7E6" height="56.06" width="98.76" class="st4" y="976.47" x="-2000.89"/>
   <rect id="svg_113" fill="#9CF7E6" height="56.06" width="98.76" class="st4" transform="matrix(0.9594 -0.2819 0.2819 0.9594 -443.9705 -484.4111)" y="1272.76" x="-1954.91"/>
   <rect id="svg_114" fill="#9CF7E6" height="98.76" width="56.06" class="st4" transform="matrix(0.2819 -0.9594 0.9594 0.2819 -2245.8958 -399.1187)" y="1251.41" x="-1417.61"/>
   <circle id="svg_115" fill="#9CF7E6" r="90.25" cy="996.9" cx="-2125.2" class="st4"/>
   <rect id="svg_116" fill="#9CF7E6" height="56.06" width="98.76" class="st4" y="976.47" x="-1394.68"/>
   <circle id="svg_117" fill="#9CF7E6" r="90.25" cy="996.9" cx="-1164.8" class="st4"/>
   <circle id="svg_118" fill="#9CF7E6" r="90.25" cy="1347.51" cx="-1232.24" class="st4"/>
   <circle id="svg_119" fill="#9CF7E6" r="90.25" cy="1477.1" cx="-1641.59" class="st4"/>
   <ellipse id="svg_120" fill="#0C1A25" ry="20.53" rx="30.63" cy="615.46" cx="-1650.78" class="st5"/>
   <circle id="svg_121" fill="#9CF7E6" r="90.25" cy="1347.51" cx="-2061.16" class="st4"/>
   <line id="svg_122" fill="#0C1A25" y2="885.57" x2="-1313.46" y1="885.57" x1="-1311.2" class="st5"/>
  </g>
  <path id="svg_123" fill="#FFFFFF" d="m-786.8,1463.61c-148.34,306.31 -456.69,520.7 -816.45,534.59c-8.99,-38.27 -13.75,-78.18 -13.75,-119.2c0,-286.64 232.36,-519 519,-519c116.75,0 224.49,38.55 311.2,103.61z" class="st2"/>
  <path id="svg_124" fill="url(#SVGID_00000141454554529226759140000000968023603220399257_)" d="m-1308.68,1773.3c1.14,5.34 1.05,10.66 -0.29,15.95c-1.34,5.3 -3.76,10.46 -7.29,15.47c-3.52,5.02 -7.85,9.65 -12.99,13.91c-7.37,6.11 -14.52,10.25 -21.44,12.43c-6.92,2.18 -13.25,3.1 -18.99,2.75c-5.73,-0.34 -10.74,-1.58 -15.01,-3.69c-4.27,-2.12 -7.44,-4.42 -9.49,-6.9c-2.47,-2.98 -3.46,-5.73 -2.95,-8.24c0.5,-2.51 1.58,-4.45 3.24,-5.83c1.41,-1.17 3.05,-1.79 4.93,-1.89c1.88,-0.09 3.73,0.71 5.56,2.41c3.11,2.74 6.5,4.6 10.19,5.59c3.69,1 7.44,1.27 11.26,0.82c3.82,-0.44 7.61,-1.52 11.36,-3.24c3.75,-1.71 7.24,-3.91 10.47,-6.58c2.57,-2.13 4.98,-4.65 7.24,-7.57c2.26,-2.92 4,-5.96 5.21,-9.14c1.21,-3.17 1.69,-6.39 1.42,-9.66c-0.27,-3.27 -1.6,-6.35 -4,-9.25c-2.61,-3.15 -5.62,-5.05 -9.03,-5.71c-3.41,-0.66 -7.09,-0.54 -11.03,0.34c-3.94,0.89 -8.09,2.34 -12.43,4.34c-4.35,2 -8.8,4.05 -13.35,6.14c-4.55,2.1 -9.14,3.98 -13.76,5.65c-4.62,1.67 -9.16,2.64 -13.62,2.91c-4.46,0.27 -8.75,-0.36 -12.88,-1.89c-4.13,-1.53 -8.02,-4.49 -11.66,-8.88c-3.43,-4.14 -5.6,-8.56 -6.49,-13.27c-0.9,-4.7 -0.7,-9.48 0.59,-14.32c1.29,-4.84 3.61,-9.63 6.95,-14.36c3.34,-4.73 7.58,-9.22 12.72,-13.48c4.97,-4.12 10.05,-7.29 15.27,-9.52c5.21,-2.22 10.18,-3.55 14.92,-3.99c4.74,-0.43 9,-0.05 12.78,1.14c3.78,1.2 6.74,3.08 8.87,5.64c1.79,2.15 2.48,4.47 2.1,6.95c-0.38,2.49 -1.45,4.45 -3.18,5.89c-1.24,1.03 -2.69,1.64 -4.35,1.83c-1.66,0.19 -3.47,-0.23 -5.44,-1.25c-3.05,-1.66 -6.02,-2.58 -8.91,-2.78c-2.88,-0.19 -5.66,0.08 -8.33,0.83c-2.67,0.75 -5.2,1.87 -7.59,3.36c-2.39,1.5 -4.58,3.07 -6.57,4.71c-2.98,2.47 -5.48,5.06 -7.49,7.78c-2.01,2.72 -3.48,5.4 -4.42,8.07c-0.93,2.66 -1.25,5.23 -0.95,7.7c0.3,2.47 1.32,4.75 3.03,6.81c2.33,2.82 5.1,4.43 8.31,4.84c3.21,0.42 6.73,0.08 10.58,-1.02c3.84,-1.09 7.92,-2.66 12.24,-4.7c4.31,-2.04 8.77,-4.13 13.36,-6.26c4.59,-2.13 9.23,-3.99 13.92,-5.57c4.69,-1.58 9.34,-2.47 13.94,-2.65c4.6,-0.18 9.05,0.6 13.36,2.33c4.3,1.74 8.35,4.89 12.12,9.44c4.18,5.08 6.84,10.27 7.99,15.61zm-48.12,-77.87c-1.82,1.51 -3.91,2.16 -6.25,1.94c-2.35,-0.22 -4.28,-1.24 -5.79,-3.06c-1.51,-1.82 -2.14,-3.88 -1.88,-6.19c0.25,-2.3 1.29,-4.21 3.11,-5.72l61.1,-50.66c1.82,-1.51 3.89,-2.17 6.2,-2c2.31,0.18 4.23,1.18 5.73,3c1.51,1.82 2.16,3.91 1.94,6.25c-0.22,2.35 -1.24,4.28 -3.06,5.79l-23.22,19.25l64.35,77.61c1.65,1.99 2.35,4.31 2.1,6.96c-0.25,2.65 -1.37,4.8 -3.35,6.45c-2.07,1.72 -4.41,2.43 -7.02,2.15c-2.61,-0.28 -4.74,-1.42 -6.38,-3.4l-64.35,-77.61l-23.23,19.24zm89.01,-94.97c3.02,0.01 6.01,0.89 8.98,2.61l97.69,54.38c1.31,0.73 2.37,1.6 3.2,2.59c0.62,0.75 1.18,1.68 1.69,2.79c0.51,1.12 0.83,2.35 0.97,3.7c0.14,1.35 -0.07,2.75 -0.62,4.18c-0.56,1.44 -1.58,2.77 -3.07,4.01c-1.74,1.44 -3.8,2.24 -6.18,2.4c-2.38,0.16 -4.62,-0.36 -6.73,-1.54l-27.76,-16.8l-35.76,29.66l12.65,31.43c0.74,1.9 0.77,3.8 0.1,5.68c-0.67,1.89 -1.8,3.48 -3.37,4.78c-2.24,1.85 -4.78,2.71 -7.63,2.55s-5.17,-1.3 -6.95,-3.46c-0.69,-0.83 -1.21,-1.72 -1.58,-2.67l-37.99,-105.97c-1.15,-3.24 -1.45,-6.34 -0.91,-9.31c0.54,-2.97 2.14,-5.55 4.79,-7.74c2.63,-2.19 5.46,-3.28 8.48,-3.27zm25.58,71.42l27.07,-22.45l-48.16,-29.01l21.09,51.46zm106.85,-29.09c1.65,1.99 2.37,4.29 2.16,6.9c-0.21,2.62 -1.35,4.78 -3.41,6.5c-1.99,1.65 -4.31,2.35 -6.96,2.1c-2.65,-0.25 -4.8,-1.36 -6.45,-3.35l-67.13,-80.97c-2.2,-2.65 -3.13,-5.71 -2.81,-9.2c0.32,-3.48 1.85,-6.36 4.58,-8.62l47.69,-39.54c1.82,-1.51 3.89,-2.17 6.2,-2c2.31,0.18 4.23,1.18 5.73,3c1.51,1.82 2.16,3.91 1.94,6.25c-0.22,2.35 -1.24,4.28 -3.06,5.79l-42.84,35.52l22.34,26.95l38.99,-32.33c1.82,-1.51 3.88,-2.14 6.19,-1.88c2.31,0.25 4.22,1.29 5.73,3.11c1.44,1.74 2.07,3.76 1.89,6.08c-0.18,2.31 -1.18,4.23 -3,5.73l-38.99,32.33l31.21,37.63zm72.27,-59.92c1.65,1.99 2.37,4.29 2.16,6.9c-0.21,2.62 -1.35,4.78 -3.41,6.5c-1.99,1.65 -4.31,2.35 -6.96,2.1c-2.65,-0.25 -4.8,-1.36 -6.45,-3.35l-67.13,-80.97c-2.2,-2.65 -3.13,-5.71 -2.81,-9.2c0.32,-3.48 1.85,-6.36 4.58,-8.62l47.69,-39.54c1.82,-1.51 3.89,-2.17 6.2,-2c2.31,0.18 4.23,1.18 5.73,3c1.51,1.82 2.16,3.91 1.94,6.25c-0.22,2.35 -1.24,4.28 -3.06,5.79l-42.84,35.52l22.34,26.95l38.99,-32.33c1.82,-1.51 3.89,-2.14 6.19,-1.88c2.31,0.25 4.22,1.29 5.73,3.11c1.44,1.74 2.07,3.76 1.89,6.08c-0.18,2.31 -1.18,4.23 -3,5.73l-38.99,32.33l31.21,37.63z"/>
  <text id="svg_125" font-size="12px" font-family="'MyriadPro-Regular'" transform="matrix(1 0 0 1 -1369.4775 2881.3506)">P</text>
  <path id="svg_126" fill="url(#SVGID_00000101065564771639041650000004467088844575944893_)" d="m-1401.4,3242.32c0,-13.54 4.79,-25.1 14.38,-34.69c9.59,-9.59 21.15,-14.38 34.69,-14.38l111.12,0c20.68,0 40.23,3.95 58.66,11.84c18.42,7.9 34.49,18.71 48.23,32.43c13.72,13.73 24.54,29.81 32.43,48.23c7.9,18.43 11.84,38.17 11.84,59.22c0,21.06 -3.95,40.71 -11.84,58.94c-7.9,18.24 -18.71,34.22 -32.43,47.94c-13.73,13.73 -29.81,24.54 -48.23,32.43c-18.43,7.9 -37.98,11.84 -58.66,11.84l-61.48,0l0,70.51c0,13.92 -4.79,25.66 -14.38,35.25c-9.59,9.59 -21.35,14.38 -35.25,14.38c-13.54,0 -25.1,-4.79 -34.69,-14.38c-9.59,-9.59 -14.38,-21.34 -14.38,-35.25l0,-324.31l-0.01,0zm98.71,42.31l0,120.14l54.15,0c8.27,0 16.08,-1.6 23.41,-4.79c7.33,-3.19 13.63,-7.52 18.9,-12.97c5.26,-5.45 9.49,-11.75 12.69,-18.9c3.19,-7.14 4.79,-14.85 4.79,-23.13c0,-8.27 -1.6,-16.08 -4.79,-23.41c-3.2,-7.33 -7.43,-13.72 -12.69,-19.18c-5.27,-5.45 -11.56,-9.77 -18.9,-12.97c-7.33,-3.19 -15.14,-4.79 -23.41,-4.79l-54.15,0zm348.01,323.19c-19.56,-7.9 -36.66,-18.98 -51.33,-33.28c-14.67,-14.29 -26.23,-31.3 -34.69,-51.05c-8.46,-19.74 -12.69,-41.46 -12.69,-65.15c0,-23.69 4.23,-45.41 12.69,-65.15c8.46,-19.74 20.02,-36.75 34.69,-51.05c14.67,-14.29 31.77,-25.38 51.33,-33.28c19.55,-7.9 40.42,-11.84 62.61,-11.84c22.18,0 43.05,3.95 62.61,11.84c19.55,7.9 36.66,18.99 51.33,33.28c14.67,14.29 26.23,31.3 34.69,51.05c8.46,19.74 12.69,41.46 12.69,65.15c0,23.69 -4.23,45.41 -12.69,65.15c-8.46,19.74 -20.02,36.76 -34.69,51.05c-14.67,14.29 -31.78,25.38 -51.33,33.28c-19.56,7.9 -40.43,11.84 -62.61,11.84c-22.19,0.01 -43.06,-3.94 -62.61,-11.84zm-8.18,-119.57c3.95,9.4 9.39,17.58 16.36,24.54c6.95,6.96 15.13,12.41 24.54,16.36c9.39,3.95 19.36,5.92 29.89,5.92c10.52,0 20.49,-1.97 29.89,-5.92c9.39,-3.95 17.57,-9.39 24.54,-16.36c6.95,-6.95 12.41,-15.13 16.36,-24.54c3.95,-9.39 5.92,-19.36 5.92,-29.89c0,-10.52 -1.97,-20.49 -5.92,-29.89c-3.95,-9.39 -9.4,-17.57 -16.36,-24.54c-6.96,-6.95 -15.14,-12.41 -24.54,-16.36c-9.4,-3.95 -19.37,-5.92 -29.89,-5.92c-10.53,0 -20.5,1.97 -29.89,5.92c-9.4,3.95 -17.58,9.4 -24.54,16.36c-6.96,6.96 -12.41,15.14 -16.36,24.54c-3.95,9.4 -5.92,19.37 -5.92,29.89c0,10.52 1.98,20.49 5.92,29.89zm381.01,84.04c0,12.04 -4.33,22.38 -12.97,31.02c-8.65,8.65 -18.99,12.97 -31.02,12.97c-12.04,0 -22.28,-4.32 -30.74,-12.97c-8.46,-8.65 -12.69,-18.98 -12.69,-31.02l0,-228.44c0,-12.03 4.23,-22.28 12.69,-30.74c8.46,-8.46 18.7,-12.69 30.74,-12.69c9.39,0 17.77,2.64 25.1,7.9c7.33,5.27 12.5,11.28 15.51,18.05c2.63,-1.88 6.2,-4.23 10.72,-7.05c4.51,-2.82 9.59,-5.64 15.23,-8.46c5.64,-2.82 11.75,-5.26 18.33,-7.33c6.57,-2.06 13.63,-3.1 21.15,-3.1c7.14,0 14.29,1.13 21.43,3.38c7.14,2.26 13.54,5.46 19.18,9.59c5.64,4.14 10.15,9.5 13.54,16.08c3.38,6.58 5.08,14.01 5.08,22.28c0,8.28 -1.51,15.79 -4.51,22.56c-3.01,6.77 -6.87,12.51 -11.56,17.2c-4.71,4.71 -10.06,8.37 -16.08,11c-6.02,2.64 -12.04,3.95 -18.05,3.95c-6.4,0 -11.76,-0.85 -16.08,-2.54c-4.33,-1.69 -8.18,-3.67 -11.56,-5.92c-3.38,-2.26 -6.68,-4.23 -9.87,-5.92c-3.2,-1.69 -6.87,-2.54 -11,-2.54c-1.89,0 -4.14,0.28 -6.77,0.85c-2.64,0.56 -5.08,1.69 -7.33,3.38s-4.23,4.33 -5.92,7.9c-1.69,3.58 -2.54,8.37 -2.54,14.38l0,156.23l-0.01,0zm230.13,31.02c-8.65,-8.65 -12.97,-18.98 -12.97,-31.02l0,-194.59l-10.15,0c-10.91,0 -20.12,-3.75 -27.64,-11.28c-7.53,-7.52 -11.28,-16.54 -11.28,-27.07c0,-10.9 3.75,-20.11 11.28,-27.64c7.52,-7.52 16.73,-11.28 27.64,-11.28l10.15,0l0,-49.64c0,-6.01 1.13,-11.65 3.38,-16.92c2.26,-5.26 5.36,-9.87 9.31,-13.82s8.65,-7.05 14.1,-9.31c5.45,-2.26 11.18,-3.38 17.2,-3.38c12.03,0 22.28,4.23 30.74,12.69c8.46,8.46 12.69,18.71 12.69,30.74l0,49.64l20.87,0c10.52,0 19.55,3.76 27.07,11.28c7.52,7.53 11.28,16.74 11.28,27.64c0,10.53 -3.76,19.56 -11.28,27.07c-7.53,7.53 -16.55,11.28 -27.07,11.28l-20.87,0l0,194.59c0,12.04 -4.23,22.38 -12.69,31.02c-8.46,8.65 -18.71,12.97 -30.74,12.97c-12.04,0 -22.37,-4.32 -31.02,-12.97zm490.15,-31.02c0,12.04 -4.23,22.38 -12.69,31.02c-8.46,8.65 -18.71,12.97 -30.74,12.97c-10.15,0 -19.18,-3.38 -27.07,-10.15c-7.9,-6.77 -12.79,-14.1 -14.67,-22c-1.13,0.76 -3.76,2.82 -7.9,6.2c-4.14,3.38 -9.87,7.05 -17.2,11s-16.27,7.43 -26.79,10.43c-10.53,3.01 -22.76,4.51 -36.66,4.51c-17.68,0 -35.25,-3.95 -52.74,-11.84c-17.49,-7.9 -33.09,-18.9 -46.82,-33c-13.73,-14.1 -24.91,-30.74 -33.56,-49.92c-8.65,-19.18 -12.97,-40.23 -12.97,-63.17c0,-22.93 4.32,-44.08 12.97,-63.45c8.65,-19.36 19.83,-36 33.56,-49.92c13.72,-13.91 29.33,-24.82 46.82,-32.71c17.49,-7.9 35.06,-11.84 52.74,-11.84c13.91,0 26.13,1.51 36.66,4.51c10.52,3.01 19.46,6.49 26.79,10.43s13.06,7.61 17.2,11c4.13,3.38 6.77,5.46 7.9,6.2c1.88,-7.9 6.77,-15.23 14.67,-22c7.9,-6.77 16.92,-10.15 27.07,-10.15c12.03,0 22.28,4.23 30.74,12.69s12.69,18.71 12.69,30.74l0,228.45zm-188.11,-181.06c-8.84,3.76 -16.55,8.94 -23.13,15.51c-6.58,6.58 -11.76,14.29 -15.51,23.13c-3.76,8.84 -5.64,18.33 -5.64,28.48c0,10.15 1.88,19.65 5.64,28.48c3.75,8.84 8.93,16.55 15.51,23.13c6.57,6.58 14.29,11.76 23.13,15.51c8.83,3.76 18.33,5.64 28.48,5.64s19.55,-1.88 28.2,-5.64c8.65,-3.75 16.26,-8.93 22.84,-15.51c6.57,-6.57 11.75,-14.29 15.51,-23.13c3.75,-8.83 5.64,-18.33 5.64,-28.48c0,-10.15 -1.89,-19.64 -5.64,-28.48c-3.76,-8.83 -8.94,-16.54 -15.51,-23.13c-6.58,-6.57 -14.2,-11.75 -22.84,-15.51c-8.65,-3.75 -18.05,-5.64 -28.2,-5.64s-19.64,1.89 -28.48,5.64zm351.68,181.06c0,12.04 -4.33,22.38 -12.97,31.02c-8.65,8.65 -18.99,12.97 -31.02,12.97c-6.02,0 -11.66,-1.13 -16.92,-3.38c-5.27,-2.26 -9.87,-5.36 -13.82,-9.31c-3.95,-3.95 -7.05,-8.65 -9.31,-14.1c-2.26,-5.45 -3.38,-11.18 -3.38,-17.2l0,-335.6c0,-12.03 4.23,-22.28 12.69,-30.74c8.46,-8.46 18.7,-12.69 30.74,-12.69c6.01,0 11.75,1.13 17.2,3.38c5.45,2.26 10.15,5.36 14.1,9.31c3.95,3.95 7.05,8.56 9.31,13.82c2.26,5.27 3.38,10.91 3.38,16.92l0,335.6zm-1241.56,450.1c-3.38,0 -6.66,-0.62 -9.81,-1.86c-3.16,-1.24 -5.98,-2.99 -8.46,-5.24c-2.49,-2.25 -4.52,-5.08 -6.09,-8.46c-1.58,-3.38 -2.37,-7.11 -2.37,-11.17l0,-213.88c0,-7.22 2.59,-13.42 7.78,-18.61c5.19,-5.19 11.51,-7.78 18.95,-7.78l153.31,0c4.96,0 9.14,1.69 12.52,5.08c3.38,3.38 5.08,7.56 5.08,12.52c0,4.97 -1.69,9.2 -5.08,12.69c-3.38,3.5 -7.56,5.24 -12.52,5.24l-140.11,0l0,73.44l131.65,0c4.96,0 9.14,1.75 12.52,5.24c3.38,3.5 5.08,7.73 5.08,12.69c0,4.74 -1.69,8.86 -5.08,12.35c-3.38,3.5 -7.56,5.25 -12.52,5.25l-131.65,0l0,86.97l142.81,0c4.74,0 8.85,1.75 12.35,5.25c3.5,3.5 5.25,7.73 5.25,12.69c0,4.97 -1.75,9.14 -5.25,12.52c-3.5,3.38 -7.61,5.08 -12.35,5.08l-156.01,0l0,-0.01zm329.45,-11.17c-3.95,2.71 -8.07,4.91 -12.35,6.6c-4.29,1.69 -9.03,2.88 -14.21,3.55c-5.19,0.68 -11.17,1.02 -17.94,1.02c-11.06,0 -21.49,-2.37 -31.3,-7.11c-9.81,-4.74 -18.39,-11.45 -25.72,-20.14c-7.33,-8.68 -13.15,-19 -17.43,-30.97c-4.29,-11.96 -6.43,-25.15 -6.43,-39.6c0,-14.44 1.91,-27.69 5.75,-39.76c3.83,-12.07 9.31,-22.45 16.41,-31.13c7.11,-8.68 15.62,-15.4 25.55,-20.14c9.93,-4.74 20.98,-7.11 33.17,-7.11c9.25,0 17.26,1.13 24.03,3.38c6.77,2.26 12.41,4.91 16.92,7.95c4.51,3.05 8.06,6.04 10.66,8.97c2.59,2.93 4.45,5.08 5.58,6.43l0,-80.21c0,-4.96 1.69,-9.14 5.08,-12.52c3.38,-3.38 7.56,-5.08 12.52,-5.08c4.96,0 9.19,1.69 12.69,5.08c3.5,3.38 5.25,7.56 5.25,12.52l0,231.48c0,4.97 -1.75,9.2 -5.25,12.69c-3.5,3.5 -7.73,5.25 -12.69,5.25c-4.97,0 -9.14,-1.75 -12.52,-5.25c-3.38,-3.49 -5.08,-7.72 -5.08,-12.69l0,-3.04c-4.51,3.86 -8.74,7.13 -12.69,9.83zm-88.66,-60.91c2.37,8.35 5.86,15.68 10.49,22c4.62,6.32 10.21,11.4 16.75,15.23c6.54,3.84 14.1,5.75 22.67,5.75c8.57,0 16.19,-1.91 22.84,-5.75c6.65,-3.83 12.24,-8.91 16.75,-15.23c4.51,-6.31 7.95,-13.65 10.32,-22c2.37,-8.34 3.55,-16.92 3.55,-25.72c0,-9.02 -1.18,-17.65 -3.55,-25.89c-2.37,-8.23 -5.81,-15.57 -10.32,-22c-4.52,-6.43 -10.1,-11.56 -16.75,-15.4c-6.66,-3.83 -14.27,-5.75 -22.84,-5.75c-8.58,0 -16.13,1.92 -22.67,5.75c-6.55,3.84 -12.13,8.97 -16.75,15.4c-4.63,6.43 -8.12,13.77 -10.49,22c-2.37,8.24 -3.55,16.87 -3.55,25.89c-0.01,8.8 1.18,17.37 3.55,25.72zm318.62,-105.93c0,-4.96 1.69,-9.19 5.08,-12.69c3.38,-3.5 7.56,-5.25 12.52,-5.25c4.96,0 9.19,1.75 12.69,5.25c3.49,3.5 5.24,7.73 5.24,12.69l0,173.61c0,11.28 -2.32,21.54 -6.94,30.8c-4.63,9.25 -10.89,17.2 -18.78,23.86c-7.9,6.65 -17.15,11.84 -27.75,15.57c-10.61,3.72 -22,5.58 -34.18,5.58c-13.31,0 -24.7,-1.64 -34.18,-4.91c-9.48,-3.27 -17.38,-7.11 -23.69,-11.51c-6.32,-4.4 -10.95,-8.92 -13.88,-13.54c-2.93,-4.63 -4.4,-8.29 -4.4,-11c0,-4.52 1.47,-8.46 4.4,-11.84c2.93,-3.38 6.43,-5.08 10.49,-5.08c4.06,0 8.12,2.14 12.18,6.43c2.93,3.38 5.87,6.37 8.8,8.97c2.93,2.59 6.26,4.79 9.98,6.6c3.72,1.8 8.01,3.16 12.86,4.06c4.85,0.9 10.66,1.35 17.43,1.35c7.22,0 13.99,-0.85 20.31,-2.54c6.31,-1.69 11.84,-4.4 16.58,-8.12c4.74,-3.72 8.46,-8.46 11.17,-14.21c2.71,-5.75 4.06,-12.58 4.06,-20.48l0,-22.34c-2.26,2.49 -5.08,5.25 -8.46,8.29c-3.38,3.04 -7.44,5.92 -12.18,8.63c-4.74,2.71 -10.27,5.02 -16.58,6.94c-6.32,1.92 -13.65,2.88 -22,2.88c-12.18,0 -23.41,-1.91 -33.67,-5.75c-10.27,-3.83 -19.07,-9.7 -26.4,-17.6c-7.33,-7.89 -13.03,-18.05 -17.09,-30.46c-4.06,-12.41 -6.09,-27.07 -6.09,-44c0,-17.14 2.25,-31.86 6.77,-44.16c4.51,-12.29 10.54,-22.45 18.11,-30.46c7.56,-8.01 16.36,-13.93 26.4,-17.77c10.04,-3.83 20.7,-5.75 31.98,-5.75c13.76,0 25.43,2.15 35.03,6.43c9.59,4.29 17.65,9.14 24.2,14.55l0,-3.03l-0.01,0zm-94.42,131.48c9.93,11.62 23.57,17.43 40.95,17.43c17.37,0 30.96,-5.81 40.78,-17.43c9.81,-11.62 14.72,-28.71 14.72,-51.27c0,-22.56 -4.91,-39.71 -14.72,-51.44c-9.81,-11.73 -23.41,-17.6 -40.78,-17.6c-17.38,0 -31.02,5.87 -40.95,17.6c-9.93,11.73 -14.89,28.88 -14.89,51.44c0,22.56 4.96,39.65 14.89,51.27zm206.1,-40.78c0,0.45 0.17,2.32 0.51,5.58c0.34,3.27 1.13,7.17 2.37,11.68c1.24,4.52 3.05,9.31 5.42,14.38c2.37,5.08 5.58,9.76 9.64,14.04c4.06,4.29 9.08,7.84 15.06,10.66c5.98,2.82 13.25,4.23 21.83,4.23c6.99,0 12.97,-0.56 17.94,-1.69c4.96,-1.13 9.36,-2.82 13.2,-5.08c3.83,-2.25 7.33,-5.13 10.49,-8.63c3.16,-3.5 6.31,-7.61 9.48,-12.35c1.8,-2.71 3.83,-4.62 6.09,-5.75c2.25,-1.13 4.62,-1.69 7.11,-1.69c4.06,0 7.78,1.47 11.17,4.4c3.38,2.93 5.08,6.66 5.08,11.17c0,2.71 -1.47,6.77 -4.4,12.18c-2.93,5.41 -7.61,10.83 -14.04,16.24c-6.43,5.42 -14.72,10.15 -24.87,14.21c-10.15,4.06 -22.56,6.09 -37.23,6.09c-14.89,0 -28.21,-2.71 -39.93,-8.12c-11.73,-5.42 -21.61,-12.69 -29.61,-21.83c-8.01,-9.14 -14.1,-19.8 -18.28,-31.98c-4.18,-12.18 -6.26,-24.93 -6.26,-38.24c0,-13.76 2.14,-26.79 6.43,-39.09c4.28,-12.29 10.43,-22.96 18.44,-31.98c8.01,-9.02 17.65,-16.19 28.94,-21.49c11.28,-5.3 23.91,-7.95 37.9,-7.95c12.86,0 24.87,1.92 36.04,5.75c11.17,3.84 20.87,9.42 29.1,16.75c8.23,7.33 14.72,16.3 19.46,26.9c4.74,10.61 7.11,22.67 7.11,36.21c0,8.35 -2.03,14.67 -6.09,18.95c-4.06,4.29 -8.8,6.43 -14.21,6.43l-123.89,0l0,0.02zm31.81,-78.18c-5.87,2.49 -10.78,5.58 -14.72,9.31c-3.95,3.72 -7.05,7.84 -9.31,12.35c-2.26,4.52 -3.95,8.69 -5.08,12.52c-1.13,3.84 -1.81,7.17 -2.03,9.98c-0.23,2.82 -0.34,4.46 -0.34,4.91l109.65,0c0,-6.99 -1.13,-13.65 -3.38,-19.97c-2.26,-6.31 -5.7,-11.9 -10.32,-16.75c-4.63,-4.85 -10.55,-8.74 -17.77,-11.68c-7.22,-2.93 -15.68,-4.4 -25.38,-4.4c-8.35,0.01 -15.46,1.25 -21.32,3.73z"/>
 </g>
</svg>