<?xml version="1.0" encoding="utf-8"?>
<!-- Generator: Adobe Illustrator 28.2.0, SVG Export Plug-In . SVG Version: 6.00 Build 0)  -->
<svg version="1.1" id="Layer_1" xmlns="http://www.w3.org/2000/svg" xmlns:xlink="http://www.w3.org/1999/xlink" x="0px" y="0px"
	 viewBox="0 0 6367.19 6545.12" style="enable-background:new 0 0 6367.19 6545.12;" xml:space="preserve">
<style type="text/css">
	.st0{fill:url(#svg_51_00000172410221660807377890000000337406690848507816_);}
	.st1{fill:#FFFFFF;}
	.st2{fill:#A8DBD5;}
	.st3{fill:url(#svg_103_00000070830688595256745510000010587113289946918809_);}
	.st4{fill:none;}
</style>
<g>
	
		<linearGradient id="svg_51_00000062164182311312727650000013952396495089123715_" gradientUnits="userSpaceOnUse" x1="7087.6924" y1="6564.127" x2="7087.6943" y2="6560.9463" gradientTransform="matrix(1895.99 0 0 -1934.3899 -13435041 12697755)">
		<stop  offset="0" style="stop-color:#3A596E"/>
		<stop  offset="1" style="stop-color:#0C1A25"/>
	</linearGradient>
	
		<path id="svg_51_00000165915454735498085530000002227645301215203244_" style="fill:url(#svg_51_00000062164182311312727650000013952396495089123715_);" d="
		M6227.7,3199.74v124.47c0,1697.09-1375.77,3072.87-3072.86,3072.87l0,0c-1697.13,0-3072.9-1375.8-3072.9-3072.9v-124.47
		c0-1697.09,1375.77-3072.86,3072.86-3072.86l0,0C4851.9,126.84,6227.7,1502.64,6227.7,3199.74L6227.7,3199.74z"/>
	<path id="svg_91_00000072990435230012688070000001263207165233194934_" class="st1" d="M4845.71,2157.5v354.26
		c0,16.78-8.91,32.32-23.41,40.69l-129.71,75.37c-15.93,9.31-35.81,8.37-50.85-2.19l-102.72-72.69
		c-12.49-8.86-19.92-23.18-19.92-38.49v-246.08c0-0.76-0.04-1.48-0.04-2.19l-1.79-32.63c-2.15-40.64,10.43-80.65,35.45-112.66
		l34.78-44.58c6.4-8.24,9.89-18.44,9.89-28.96v-431.7c0-4.88-0.76-9.67-2.19-14.23l-1414.01,659.11c-9,4.21-19.38,4.21-28.38,0
		l-1599.58-745.59c-25.83-12.04-25.87-48.7-0.09-60.83L3128.82,713.1c8.95-4.21,19.25-4.25,28.24-0.13l1192.05,544.71
		c444.81,108.45,441.01,201.5,441.01,201.5l-0.13,51.43l-1.43,560.11v0.22c0,18.89,11.28,35.81,28.65,43.28
		C4834.52,2121.6,4845.71,2138.7,4845.71,2157.5L4845.71,2157.5z"/>
	<path id="svg_93_00000017496455849322110640000014336041129399416743_" class="st1" d="M2280.91,2099.94v269.09
		c0,8.95,4.48,17.28,11.91,22.2l376.96,249.93c289.1,191.66,662.56,200.34,960.25,22.33l428.97-256.51
		c8.06-4.79,12.98-13.52,12.98-22.87v-283.55c0-20.1-21.39-32.94-39.16-23.54l-563.64,299.43
		c-175.01,92.96-384.43,94.26-560.56,3.45l-588.84-303.64C2302.04,2067.13,2280.91,2079.98,2280.91,2099.94L2280.91,2099.94z"/>
	<path id="svg_94_00000075162070117952372090000007788818812066311838_" class="st1" d="M2280.91,2766.35v1531.59
		c0,160.82,131.86,290.35,292.63,287.53l1215.91-21.35c156.83-2.78,282.52-130.69,282.52-287.53V2767.33
		c0-28.38-30.84-46.01-55.28-31.6l-266.89,157.06c-346.34,203.79-775.26,206.56-1124.2,7.25l-289.81-165.52
		C2311.35,2720.52,2280.91,2738.15,2280.91,2766.35L2280.91,2766.35z"/>
	
		<rect id="svg_95_00000003815704318820900680000009461121350310597560_" x="1579.72" y="3039.42" class="st2" width="442.04" height="250.92"/>
	
		<rect id="svg_96_00000174595382018959736270000016486078402549169282_" x="1786.09" y="4364.85" transform="matrix(0.9594 -0.2819 0.2819 0.9594 -1184.4622 747.9515)" class="st2" width="442.02" height="250.91"/>
	
		<rect id="svg_97_00000100361454865877686950000012128618823979107743_" x="4189.64" y="4269.66" transform="matrix(0.2819 -0.9594 0.9594 0.2819 -1209.9128 7364.7651)" class="st2" width="250.91" height="442.02"/>
	<circle id="svg_98_00000178170893201439403970000013562636753529480608_" class="st2" cx="1023.33" cy="3130.86" r="403.95"/>
	
		<rect id="svg_99_00000057138951666810017180000000284903582964299193_" x="4293.03" y="3039.42" class="st2" width="442.04" height="250.92"/>
	<circle id="svg_100_00000047056669189711937190000011984947055967447442_" class="st2" cx="5321.94" cy="3130.86" r="403.95"/>
	<circle id="svg_101_00000153676561032120642870000011417693602595018129_" class="st2" cx="5020.09" cy="4700.14" r="403.95"/>
	<circle id="svg_102_00000061467083176979839990000016545775886956223650_" class="st2" cx="3187.9" cy="5280.17" r="403.95"/>
	
		<linearGradient id="svg_103_00000101818872382673912130000012267722523653645700_" gradientUnits="userSpaceOnUse" x1="3009.6697" y1="1423.5929" x2="3283.8594" y2="1423.5929">
		<stop  offset="0" style="stop-color:#3A596E"/>
		<stop  offset="1" style="stop-color:#0C1A25"/>
	</linearGradient>
	
		<ellipse id="svg_103_00000121993980870105127400000004390078290268363660_" style="fill:url(#svg_103_00000101818872382673912130000012267722523653645700_);" cx="3146.76" cy="1423.59" rx="137.09" ry="91.89"/>
	<circle id="svg_104_00000077288366316805316690000014543502051917704848_" class="st2" cx="1309.96" cy="4700.14" r="403.95"/>
	
		<line id="svg_105_00000070110063950840063720000013094016747608993196_" class="st4" x1="4666.67" y1="2632.57" x2="4656.56" y2="2632.57"/>
</g>
</svg>
