<?xml version="1.0" encoding="utf-8"?>
<!-- Generator: Adobe Illustrator 28.2.0, SVG Export Plug-In . SVG Version: 6.00 Build 0)  -->
<svg version="1.1" id="Layer_1" xmlns="http://www.w3.org/2000/svg" xmlns:xlink="http://www.w3.org/1999/xlink" x="0px" y="0px"
	 viewBox="0 0 16093.19 6618.5" style="enable-background:new 0 0 16093.19 6618.5;" xml:space="preserve">
<style type="text/css">
	.st0{fill:url(#svg_51_00000042016332588913622030000002661233291900239282_);}
	.st1{fill:#FFFFFF;}
	.st2{fill:#A8DBD5;}
	.st3{fill:url(#svg_103_00000079477372163446502520000009072044525992318903_);}
	.st4{fill:none;}
	.st5{fill:url(#svg_126_00000044896754793771383420000011348083841339529613_);}
</style>
<g>
	
		<linearGradient id="svg_51_00000096060397608819761250000017540068558991478417_" gradientUnits="userSpaceOnUse" x1="7087.7969" y1="3686.2708" x2="7087.7988" y2="3683.0903" gradientTransform="matrix(1895.99 0 0 -1934.3899 -13435041 7130933)">
		<stop  offset="0" style="stop-color:#3A596E"/>
		<stop  offset="1" style="stop-color:#0C1A25"/>
	</linearGradient>
	
		<path id="svg_51_00000165915454735498085530000002227645301215203244_" style="fill:url(#svg_51_00000096060397608819761250000017540068558991478417_);" d="
		M6425.9,3273.11v124.47c0,1697.1-1375.77,3072.87-3072.86,3072.87l0,0c-1697.13,0-3072.9-1375.8-3072.9-3072.9v-124.47
		c0-1697.1,1375.77-3072.86,3072.86-3072.86l0,0C5050.09,200.22,6425.9,1576.02,6425.9,3273.11L6425.9,3273.11z"/>
	<path id="svg_91_00000072990435230012688070000001263207165233194934_" class="st1" d="M5043.9,2230.87v354.26
		c0,16.78-8.91,32.32-23.41,40.69l-129.71,75.37c-15.93,9.31-35.81,8.37-50.85-2.19l-102.72-72.69
		c-12.49-8.86-19.92-23.18-19.92-38.49v-246.08c0-0.76-0.04-1.48-0.04-2.19l-1.79-32.63c-2.15-40.64,10.43-80.66,35.45-112.66
		l34.78-44.58c6.4-8.24,9.89-18.44,9.89-28.96v-431.7c0-4.88-0.76-9.67-2.19-14.23l-1414.01,659.11c-9,4.21-19.38,4.21-28.38,0
		l-1599.58-745.59c-25.83-12.04-25.87-48.7-0.09-60.83l1575.68-741.02c8.95-4.21,19.25-4.25,28.24-0.13l1192.05,544.71
		c444.81,108.45,441.01,201.5,441.01,201.5l-0.13,51.43l-1.43,560.11v0.22c0,18.89,11.28,35.81,28.65,43.28
		C5032.71,2194.98,5043.9,2212.07,5043.9,2230.87L5043.9,2230.87z"/>
	<path id="svg_93_00000017496455849322110640000014336041129399416743_" class="st1" d="M2479.1,2173.32v269.09
		c0,8.95,4.48,17.28,11.91,22.2l376.96,249.93c289.1,191.66,662.56,200.34,960.25,22.33l428.97-256.51
		c8.06-4.79,12.98-13.52,12.98-22.87v-283.55c0-20.1-21.39-32.94-39.16-23.54l-563.64,299.43
		c-175.01,92.96-384.43,94.26-560.56,3.45l-588.84-303.64C2500.23,2140.51,2479.1,2153.35,2479.1,2173.32L2479.1,2173.32z"/>
	<path id="svg_94_00000075162070117952372090000007788818812066311838_" class="st1" d="M2479.1,2839.72v1531.59
		c0,160.82,131.86,290.35,292.63,287.53l1215.91-21.35c156.83-2.78,282.52-130.69,282.52-287.53V2840.71
		c0-28.38-30.84-46.01-55.28-31.6l-266.89,157.06c-346.34,203.79-775.26,206.56-1124.2,7.25l-289.81-165.52
		C2509.54,2793.89,2479.1,2811.53,2479.1,2839.72L2479.1,2839.72z"/>
	
		<rect id="svg_95_00000003815704318820900680000009461121350310597560_" x="1777.92" y="3112.8" class="st2" width="442.04" height="250.92"/>
	
		<rect id="svg_96_00000174595382018959736270000016486078402549169282_" x="1984.29" y="4438.23" transform="matrix(0.9594 -0.2819 0.2819 0.9594 -1197.1091 806.7999)" class="st2" width="442.02" height="250.91"/>
	
		<rect id="svg_97_00000100361454865877686950000012128618823979107743_" x="4387.83" y="4343.03" transform="matrix(0.2819 -0.9594 0.9594 0.2819 -1137.9939 7607.6079)" class="st2" width="250.91" height="442.02"/>
	<circle id="svg_98_00000178170893201439403970000013562636753529480608_" class="st2" cx="1221.52" cy="3204.24" r="403.95"/>
	
		<rect id="svg_99_00000057138951666810017180000000284903582964299193_" x="4491.22" y="3112.8" class="st2" width="442.04" height="250.92"/>
	<circle id="svg_100_00000047056669189711937190000011984947055967447442_" class="st2" cx="5520.13" cy="3204.24" r="403.95"/>
	<circle id="svg_101_00000153676561032120642870000011417693602595018129_" class="st2" cx="5218.28" cy="4773.52" r="403.95"/>
	<circle id="svg_102_00000061467083176979839990000016545775886956223650_" class="st2" cx="3386.09" cy="5353.54" r="403.95"/>
	
		<linearGradient id="svg_103_00000019645306236320137020000008621434246724610735_" gradientUnits="userSpaceOnUse" x1="3207.8606" y1="1496.9688" x2="3482.0503" y2="1496.9688">
		<stop  offset="0" style="stop-color:#3A596E"/>
		<stop  offset="1" style="stop-color:#0C1A25"/>
	</linearGradient>
	
		<ellipse id="svg_103_00000121993980870105127400000004390078290268363660_" style="fill:url(#svg_103_00000019645306236320137020000008621434246724610735_);" cx="3344.96" cy="1496.97" rx="137.09" ry="91.89"/>
	<circle id="svg_104_00000077288366316805316690000014543502051917704848_" class="st2" cx="1508.16" cy="4773.52" r="403.95"/>
	
		<line id="svg_105_00000070110063950840063720000013094016747608993196_" class="st4" x1="4864.87" y1="2705.94" x2="4854.75" y2="2705.94"/>
</g>
<linearGradient id="svg_126_00000183950072953887976350000007615676263151358870_" gradientUnits="userSpaceOnUse" x1="7089.4478" y1="3685.9875" x2="7093.7881" y2="3685.9875" gradientTransform="matrix(1703.4 0 0 -900.5505 -12068013 3323195.75)">
	<stop  offset="0" style="stop-color:#3A596E"/>
	<stop  offset="1" style="stop-color:#0C1A25"/>
</linearGradient>
<path id="svg_126_00000007387337591727822080000016264665137545977532_" style="fill:url(#svg_126_00000183950072953887976350000007615676263151358870_);" d="
	M8152.47,2036.39c0-58.77,20.79-108.94,62.41-150.56c41.62-41.62,91.8-62.41,150.56-62.41h482.29c89.76,0,174.61,17.14,254.6,51.39
	c79.95,34.29,149.69,81.21,209.33,140.75c59.55,59.59,106.51,129.38,140.75,209.33c34.29,79.99,51.39,165.67,51.39,257.03
	c0,91.41-17.14,176.69-51.39,255.81c-34.29,79.17-81.21,148.52-140.75,208.07c-59.59,59.59-129.38,106.51-209.33,140.75
	c-79.99,34.29-164.84,51.39-254.6,51.39h-266.84v306.03c0,60.42-20.79,111.37-62.41,152.99c-41.62,41.62-92.66,62.41-152.99,62.41
	c-58.77,0-108.94-20.79-150.56-62.41c-41.62-41.62-62.41-92.62-62.41-152.99V2036.39H8152.47z M8580.89,2220.03v521.43h235.02
	c35.89,0,69.79-6.94,101.61-20.79c31.81-13.84,59.16-32.64,82.03-56.29c22.83-23.65,41.19-51,55.08-82.03
	c13.84-30.99,20.79-64.45,20.79-100.39c0-35.89-6.94-69.79-20.79-101.6c-13.89-31.81-32.25-59.55-55.08-83.25
	c-22.87-23.65-50.17-42.4-82.03-56.29c-31.81-13.85-65.71-20.79-101.61-20.79L8580.89,2220.03L8580.89,2220.03z M10091.33,3622.75
	c-84.9-34.29-159.11-82.38-222.78-144.44c-63.67-62.02-113.84-135.85-150.56-221.57c-36.72-85.68-55.08-179.95-55.08-282.77
	c0-102.82,18.36-197.09,55.08-282.77c36.72-85.68,86.89-159.5,150.56-221.57c63.67-62.02,137.89-110.15,222.78-144.44
	c84.85-34.29,175.43-51.39,271.74-51.39c96.27,0,186.85,17.14,271.74,51.39c84.85,34.29,159.11,82.42,222.78,144.44
	c63.67,62.02,113.84,135.85,150.56,221.57c36.72,85.68,55.08,179.95,55.08,282.77c0,102.82-18.36,197.09-55.08,282.77
	c-36.72,85.68-86.89,159.55-150.56,221.57c-63.67,62.02-137.93,110.15-222.78,144.44c-84.9,34.29-175.48,51.39-271.74,51.39
	C10266.77,3674.18,10176.19,3657.04,10091.33,3622.75z M10055.83,3103.79c17.14,40.8,40.75,76.3,71.01,106.51
	c30.17,30.21,65.67,53.86,106.51,71.01c40.75,17.14,84.03,25.69,129.73,25.69c45.66,0,88.93-8.55,129.73-25.69
	c40.75-17.14,76.26-40.75,106.51-71.01c30.16-30.16,53.86-65.67,71.01-106.51c17.14-40.75,25.69-84.03,25.69-129.73
	c0-45.66-8.55-88.93-25.69-129.73c-17.14-40.75-40.8-76.26-71.01-106.51c-30.21-30.16-65.71-53.86-106.51-71.01
	c-40.8-17.14-84.07-25.69-129.73-25.69c-45.7,0-88.97,8.55-129.73,25.69c-40.8,17.14-76.3,40.8-106.51,71.01
	c-30.21,30.21-53.86,65.71-71.01,106.51c-17.14,40.8-25.69,84.07-25.69,129.73C10030.14,3019.72,10038.73,3062.99,10055.83,3103.79z
	 M11709.5,3468.54c0,52.26-18.79,97.13-56.29,134.63c-37.54,37.54-82.42,56.29-134.63,56.29c-52.26,0-96.7-18.75-133.42-56.29
	c-36.72-37.54-55.08-82.38-55.08-134.63v-991.48c0-52.21,18.36-96.7,55.08-133.42c36.72-36.72,81.16-55.08,133.42-55.08
	c40.75,0,77.13,11.46,108.94,34.29c31.81,22.87,54.25,48.96,67.32,78.34c11.42-8.16,26.91-18.36,46.53-30.6
	c19.57-12.24,41.62-24.48,66.1-36.72c24.48-12.24,51-22.83,79.56-31.81c28.52-8.94,59.16-13.46,91.8-13.46
	c30.99,0,62.02,4.9,93.01,14.67c30.99,9.81,58.77,23.7,83.25,41.62c24.48,17.97,44.05,41.23,58.77,69.79
	c14.67,28.56,22.05,60.81,22.05,96.7c0,35.94-6.55,68.53-19.58,97.92c-13.06,29.38-29.82,54.3-50.17,74.65
	c-20.44,20.44-43.66,36.33-69.79,47.74c-26.13,11.46-52.26,17.14-78.34,17.14c-27.78,0-51.04-3.69-69.79-11.02
	c-18.79-7.33-35.5-15.93-50.17-25.69c-14.67-9.81-28.99-18.36-42.84-25.69c-13.89-7.33-29.82-11.02-47.74-11.02
	c-8.2,0-17.97,1.22-29.38,3.69c-11.46,2.43-22.05,7.33-31.81,14.67c-9.76,7.33-18.36,18.79-25.69,34.29
	c-7.33,15.54-11.02,36.33-11.02,62.41v678.07L11709.5,3468.54L11709.5,3468.54z M12708.32,3603.17
	c-37.54-37.54-56.29-82.38-56.29-134.63v-844.57h-44.05c-47.35,0-87.33-16.28-119.96-48.96c-32.68-32.64-48.96-71.79-48.96-117.49
	c0-47.31,16.28-87.28,48.96-119.96c32.64-32.64,72.61-48.96,119.96-48.96h44.05v-215.45c0-26.08,4.9-50.56,14.67-73.44
	c9.81-22.83,23.26-42.84,40.41-59.98c17.14-17.14,37.54-30.6,61.2-40.41s48.52-14.67,74.65-14.67c52.21,0,96.7,18.36,133.42,55.08
	c36.72,36.72,55.08,81.21,55.08,133.42v215.45h90.58c45.66,0,84.85,16.32,117.49,48.96c32.64,32.68,48.96,72.66,48.96,119.96
	c0,45.7-16.32,84.9-48.96,117.49c-32.68,32.68-71.83,48.96-117.49,48.96h-90.58v844.57c0,52.26-18.36,97.13-55.08,134.63
	c-36.72,37.54-81.21,56.29-133.42,56.29C12790.7,3659.47,12745.86,3640.72,12708.32,3603.17L12708.32,3603.17z M14835.68,3468.54
	c0,52.26-18.36,97.13-55.08,134.63c-36.72,37.54-81.21,56.29-133.42,56.29c-44.05,0-83.25-14.67-117.49-44.05
	c-34.29-29.38-55.51-61.2-63.67-95.48c-4.9,3.3-16.32,12.24-34.29,26.91s-42.84,30.6-74.65,47.74
	c-31.81,17.14-70.62,32.25-116.28,45.27c-45.7,13.06-98.78,19.57-159.11,19.57c-76.74,0-152.99-17.14-228.9-51.39
	c-75.91-34.29-143.62-82.03-203.21-143.23c-59.59-61.2-108.12-133.42-145.66-216.66c-37.54-83.25-56.29-174.61-56.29-274.17
	c0-99.52,18.75-191.32,56.29-275.39c37.54-84.03,86.07-156.25,145.66-216.66c59.55-60.37,127.3-107.72,203.21-141.97
	c75.91-34.29,152.17-51.39,228.9-51.39c60.37,0,113.41,6.55,159.11,19.57c45.66,13.06,84.46,28.17,116.28,45.27
	c31.81,17.1,56.68,33.03,74.65,47.74c17.93,14.67,29.38,23.7,34.29,26.91c8.16-34.29,29.38-66.1,63.67-95.49
	c34.29-29.38,73.44-44.05,117.49-44.05c52.21,0,96.7,18.36,133.42,55.08c36.72,36.72,55.08,81.21,55.08,133.42V3468.54z
	 M14019.24,2682.7c-38.37,16.32-71.83,38.8-100.39,67.32c-28.56,28.56-51.04,62.02-67.32,100.39
	c-16.32,38.37-24.48,79.56-24.48,123.61s8.16,85.29,24.48,123.61c16.28,38.37,38.76,71.83,67.32,100.39
	c28.52,28.56,62.02,51.04,100.39,67.32c38.32,16.32,79.56,24.48,123.61,24.48c44.05,0,84.85-8.16,122.39-24.48
	c37.54-16.28,70.57-38.76,99.13-67.32c28.52-28.52,51-62.02,67.32-100.39c16.28-38.32,24.48-79.56,24.48-123.61
	s-8.2-85.24-24.48-123.61c-16.32-38.32-38.8-71.79-67.32-100.39c-28.56-28.52-61.63-51-99.13-67.32
	c-37.54-16.28-78.34-24.48-122.39-24.48C14098.8,2658.22,14057.61,2666.42,14019.24,2682.7z M15545.61,3468.54
	c0,52.26-18.79,97.13-56.29,134.63c-37.54,37.54-82.42,56.29-134.63,56.29c-26.13,0-50.61-4.9-73.44-14.67
	c-22.87-9.81-42.84-23.26-59.98-40.41c-17.14-17.14-30.6-37.54-40.41-61.2c-9.81-23.65-14.67-48.52-14.67-74.65V2011.96
	c0-52.21,18.36-96.7,55.08-133.42s81.16-55.08,133.42-55.08c26.08,0,51,4.9,74.65,14.67c23.65,9.81,44.05,23.26,61.2,40.41
	c17.14,17.14,30.6,37.15,40.41,59.98c9.81,22.87,14.67,47.35,14.67,73.44V3468.54L15545.61,3468.54z M10156.96,5422.08
	c-14.67,0-28.91-2.69-42.58-8.07c-13.71-5.38-25.95-12.98-36.72-22.74c-10.81-9.77-19.62-22.05-26.43-36.72
	c-6.86-14.67-10.29-30.86-10.29-48.48v-928.29c0-31.34,11.24-58.25,33.77-80.77c22.53-22.53,49.96-33.77,82.25-33.77h665.4
	c21.53,0,39.67,7.33,54.34,22.05c14.67,14.67,22.05,32.81,22.05,54.34c0,21.57-7.33,39.93-22.05,55.08
	c-14.67,15.19-32.81,22.74-54.34,22.74h-608.11v318.75h571.39c21.53,0,39.67,7.6,54.34,22.74c14.67,15.19,22.05,33.55,22.05,55.08
	c0,20.57-7.33,38.46-22.05,53.6c-14.67,15.19-32.81,22.79-54.34,22.79h-571.39v377.47h619.83c20.57,0,38.41,7.6,53.6,22.79
	s22.79,33.55,22.79,55.08c0,21.57-7.6,39.67-22.79,54.34c-15.19,14.67-33.03,22.05-53.6,22.05h-677.12V5422.08z M11586.85,5373.6
	c-17.14,11.76-35.03,21.31-53.6,28.65c-18.62,7.33-39.19,12.5-61.67,15.41c-22.53,2.95-48.48,4.43-77.86,4.43
	c-48,0-93.27-10.29-135.85-30.86c-42.58-20.57-79.82-49.7-111.63-87.41c-31.81-37.67-57.07-82.46-75.65-134.42
	c-18.62-51.91-27.91-109.16-27.91-171.87c0-62.67,8.29-120.18,24.96-172.57c16.62-52.39,40.41-97.44,71.22-135.11
	c30.86-37.67,67.79-66.84,110.89-87.41c43.1-20.57,91.06-30.86,143.96-30.86c40.15,0,74.91,4.9,104.3,14.67
	c29.38,9.81,53.86,21.31,73.44,34.5c19.57,13.24,34.98,26.21,46.27,38.93c11.24,12.72,19.31,22.05,24.22,27.91v-348.13
	c0-21.53,7.33-39.67,22.05-54.34c14.67-14.67,32.81-22.05,54.34-22.05c21.53,0,39.89,7.33,55.08,22.05
	c15.19,14.67,22.79,32.81,22.79,54.34v1004.68c0,21.57-7.6,39.93-22.79,55.08c-15.19,15.19-33.55,22.79-55.08,22.79
	c-21.57,0-39.67-7.6-54.34-22.79c-14.67-15.15-22.05-33.51-22.05-55.08v-13.19C11622.35,5347.69,11603.99,5361.88,11586.85,5373.6z
	 M11202.04,5109.23c10.29,36.24,25.43,68.05,45.53,95.49c20.05,27.43,44.31,49.48,72.7,66.1c28.38,16.67,61.2,24.96,98.39,24.96
	c37.2,0,70.27-8.29,99.13-24.96c28.86-16.62,53.12-38.67,72.7-66.1c19.57-27.39,34.5-59.24,44.79-95.49
	c10.29-36.2,15.41-73.44,15.41-111.63c0-39.15-5.12-76.6-15.41-112.37c-10.29-35.72-25.22-67.58-44.79-95.48
	c-19.62-27.91-43.84-50.17-72.7-66.84c-28.91-16.62-61.93-24.96-99.13-24.96c-37.24,0-70.01,8.33-98.39,24.96
	c-28.43,16.67-52.65,38.93-72.7,66.84c-20.09,27.91-35.24,59.76-45.53,95.48c-10.29,35.76-15.41,73.22-15.41,112.37
	C11186.59,5035.8,11191.76,5072.99,11202.04,5109.23z M12584.93,4649.47c0-21.53,7.33-39.89,22.05-55.08
	c14.67-15.19,32.81-22.79,54.34-22.79c21.53,0,39.89,7.6,55.08,22.79c15.15,15.19,22.74,33.55,22.74,55.08v753.51
	c0,48.96-10.07,93.49-30.12,133.68c-20.09,40.15-47.26,74.65-81.51,103.56c-34.29,28.86-74.44,51.39-120.44,67.58
	c-46.05,16.15-95.49,24.22-148.35,24.22c-57.77,0-107.2-7.12-148.35-21.31c-41.15-14.19-75.43-30.86-102.82-49.96
	c-27.43-19.1-47.53-38.71-60.24-58.77c-12.72-20.09-19.1-35.98-19.1-47.74c0-19.62,6.38-36.72,19.1-51.39
	c12.72-14.67,27.91-22.05,45.53-22.05s35.24,9.29,52.86,27.91c12.72,14.67,25.48,27.65,38.19,38.93
	c12.72,11.24,27.17,20.79,43.32,28.65c16.15,7.81,34.77,13.71,55.82,17.62c21.05,3.91,46.27,5.86,75.65,5.86
	c31.34,0,60.72-3.69,88.15-11.02c27.39-7.33,51.39-19.1,71.96-35.24c20.57-16.15,36.72-36.72,48.48-61.67
	c11.76-24.96,17.62-54.6,17.62-88.89v-96.96c-9.81,10.81-22.05,22.79-36.72,35.98c-14.67,13.19-32.29,25.69-52.86,37.46
	c-20.57,11.76-44.57,21.79-71.96,30.12c-27.43,8.33-59.24,12.5-95.48,12.5c-52.86,0-101.61-8.29-146.14-24.96
	c-44.57-16.62-82.77-42.1-114.58-76.39c-31.81-34.24-56.55-78.34-74.17-132.2c-17.62-53.86-26.43-117.49-26.43-190.97
	c0-74.39,9.77-138.28,29.38-191.66c19.57-53.34,45.75-97.44,78.6-132.2c32.81-34.77,71.01-60.46,114.58-77.13
	c43.58-16.62,89.84-24.96,138.8-24.96c59.72,0,110.37,9.33,152.04,27.91c41.62,18.62,76.61,39.67,105.03,63.15v-13.15H12584.93
	L12584.93,4649.47z M12175.12,5220.13c43.1,50.43,102.3,75.65,177.73,75.65c75.39,0,134.37-25.22,176.99-75.65
	c42.58-50.43,63.89-124.61,63.89-222.52c0-97.92-21.31-172.35-63.89-223.26c-42.58-50.91-101.6-76.39-176.99-76.39
	c-75.43,0-134.63,25.48-177.73,76.39s-64.63,125.35-64.63,223.26C12110.5,5095.52,12132.02,5169.69,12175.12,5220.13z
	 M13069.64,5043.13c0,1.95,0.74,10.07,2.21,24.22c1.48,14.19,4.9,31.12,10.29,50.69c5.38,19.62,13.24,40.41,23.52,62.41
	c10.29,22.05,24.22,42.36,41.84,60.94c17.62,18.62,39.41,34.03,65.36,46.27c25.95,12.24,57.51,18.36,94.75,18.36
	c30.34,0,56.29-2.43,77.86-7.33c21.53-4.9,40.62-12.24,57.29-22.05c16.62-9.77,31.81-22.26,45.53-37.46s27.39-33.03,41.15-53.6
	c7.81-11.76,16.62-20.05,26.43-24.96c9.77-4.9,20.05-7.33,30.86-7.33c17.62,0,33.77,6.38,48.48,19.1
	c14.67,12.72,22.05,28.91,22.05,48.48c0,11.76-6.38,29.38-19.1,52.86c-12.72,23.48-33.03,47.01-60.94,70.49
	c-27.91,23.52-63.89,44.05-107.94,61.67c-44.05,17.62-97.92,26.43-161.59,26.43c-64.63,0-122.44-11.76-173.31-35.24
	c-50.91-23.52-93.79-55.08-128.51-94.75c-34.76-39.67-61.2-85.94-79.34-138.8c-18.14-52.86-27.17-108.2-27.17-165.97
	c0-59.72,9.29-116.27,27.91-169.66c18.58-53.34,45.27-99.65,80.03-138.8s76.61-70.27,125.61-93.27c48.96-23,103.77-34.5,164.49-34.5
	c55.82,0,107.94,8.33,156.42,24.96c48.48,16.67,90.58,40.88,126.3,72.7c35.72,31.81,63.89,70.75,84.46,116.75
	c20.57,46.05,30.86,98.39,30.86,157.16c0,36.24-8.81,63.67-26.43,82.25c-17.62,18.62-38.19,27.91-61.67,27.91h-537.71
	L13069.64,5043.13L13069.64,5043.13z M13207.71,4703.81c-25.48,10.81-46.79,24.22-63.89,40.41c-17.14,16.15-30.6,34.03-40.41,53.6
	c-9.81,19.62-17.14,37.72-22.05,54.34c-4.9,16.67-7.86,31.12-8.81,43.32c-1,12.24-1.48,19.36-1.48,21.31h475.91
	c0-30.34-4.9-59.24-14.67-86.67c-9.81-27.39-24.74-51.65-44.79-72.7c-20.1-21.05-45.79-37.93-77.13-50.69
	c-31.34-12.72-68.05-19.1-110.16-19.1C13264,4687.67,13233.14,4693.05,13207.71,4703.81L13207.71,4703.81z"/>
</svg>
