<?xml version="1.0" encoding="utf-8"?>
<!-- Generator: Adobe Illustrator 28.2.0, SVG Export Plug-In . SVG Version: 6.00 Build 0)  -->
<svg version="1.1" id="Layer_1" xmlns="http://www.w3.org/2000/svg" xmlns:xlink="http://www.w3.org/1999/xlink" x="0px" y="0px"
	 viewBox="0 0 6367.19 10287.29" style="enable-background:new 0 0 6367.19 10287.29;" xml:space="preserve">
<style type="text/css">
	.st0{fill:url(#svg_51_00000008857702132128651030000003110520924456930953_);}
	.st1{fill:#FFFFFF;}
	.st2{fill:#A8DBD5;}
	.st3{fill:url(#svg_103_00000166656017618955083330000017455052473467447168_);}
	.st4{fill:none;}
	.st5{fill:url(#svg_126_00000021820403522014632550000017911098329525579938_);}
</style>
<g>
	
		<linearGradient id="svg_51_00000117662697329173340100000002526397771792295598_" gradientUnits="userSpaceOnUse" x1="7087.6924" y1="6564.127" x2="7087.6943" y2="6560.9463" gradientTransform="matrix(1895.99 0 0 -1934.3899 -13435041 12697755)">
		<stop  offset="0" style="stop-color:#3A596E"/>
		<stop  offset="1" style="stop-color:#0C1A25"/>
	</linearGradient>
	
		<path id="svg_51_00000165915454735498085530000002227645301215203244_" style="fill:url(#svg_51_00000117662697329173340100000002526397771792295598_);" d="
		M6227.7,3199.74v124.47c0,1697.09-1375.77,3072.87-3072.86,3072.87l0,0c-1697.13,0-3072.9-1375.8-3072.9-3072.9v-124.47
		c0-1697.09,1375.77-3072.86,3072.86-3072.86l0,0C4851.9,126.84,6227.7,1502.64,6227.7,3199.74L6227.7,3199.74z"/>
	<path id="svg_91_00000072990435230012688070000001263207165233194934_" class="st1" d="M4845.71,2157.5v354.26
		c0,16.78-8.91,32.32-23.41,40.69l-129.71,75.37c-15.93,9.31-35.81,8.37-50.85-2.19l-102.72-72.69
		c-12.49-8.86-19.92-23.18-19.92-38.49v-246.08c0-0.76-0.04-1.48-0.04-2.19l-1.79-32.63c-2.15-40.64,10.43-80.65,35.45-112.66
		l34.78-44.58c6.4-8.24,9.89-18.44,9.89-28.96v-431.7c0-4.88-0.76-9.67-2.19-14.23l-1414.01,659.11c-9,4.21-19.38,4.21-28.38,0
		l-1599.58-745.59c-25.83-12.04-25.87-48.7-0.09-60.83L3128.82,713.1c8.95-4.21,19.25-4.25,28.24-0.13l1192.05,544.71
		c444.81,108.45,441.01,201.5,441.01,201.5l-0.13,51.43l-1.43,560.11v0.22c0,18.89,11.28,35.81,28.65,43.28
		C4834.52,2121.6,4845.71,2138.7,4845.71,2157.5L4845.71,2157.5z"/>
	<path id="svg_93_00000017496455849322110640000014336041129399416743_" class="st1" d="M2280.91,2099.94v269.09
		c0,8.95,4.48,17.28,11.91,22.2l376.96,249.93c289.1,191.66,662.56,200.34,960.25,22.33l428.97-256.51
		c8.06-4.79,12.98-13.52,12.98-22.87v-283.55c0-20.1-21.39-32.94-39.16-23.54l-563.64,299.43
		c-175.01,92.96-384.43,94.26-560.56,3.45l-588.84-303.64C2302.04,2067.13,2280.91,2079.98,2280.91,2099.94L2280.91,2099.94z"/>
	<path id="svg_94_00000075162070117952372090000007788818812066311838_" class="st1" d="M2280.91,2766.35v1531.59
		c0,160.82,131.86,290.35,292.63,287.53l1215.91-21.35c156.83-2.78,282.52-130.69,282.52-287.53V2767.33
		c0-28.38-30.84-46.01-55.28-31.6l-266.89,157.06c-346.34,203.79-775.26,206.56-1124.2,7.25l-289.81-165.52
		C2311.35,2720.52,2280.91,2738.15,2280.91,2766.35L2280.91,2766.35z"/>
	
		<rect id="svg_95_00000003815704318820900680000009461121350310597560_" x="1579.72" y="3039.42" class="st2" width="442.04" height="250.92"/>
	
		<rect id="svg_96_00000174595382018959736270000016486078402549169282_" x="1786.09" y="4364.85" transform="matrix(0.9594 -0.2819 0.2819 0.9594 -1184.4622 747.9515)" class="st2" width="442.02" height="250.91"/>
	
		<rect id="svg_97_00000100361454865877686950000012128618823979107743_" x="4189.64" y="4269.66" transform="matrix(0.2819 -0.9594 0.9594 0.2819 -1209.9128 7364.7651)" class="st2" width="250.91" height="442.02"/>
	<circle id="svg_98_00000178170893201439403970000013562636753529480608_" class="st2" cx="1023.33" cy="3130.86" r="403.95"/>
	
		<rect id="svg_99_00000057138951666810017180000000284903582964299193_" x="4293.03" y="3039.42" class="st2" width="442.04" height="250.92"/>
	<circle id="svg_100_00000047056669189711937190000011984947055967447442_" class="st2" cx="5321.94" cy="3130.86" r="403.95"/>
	<circle id="svg_101_00000153676561032120642870000011417693602595018129_" class="st2" cx="5020.09" cy="4700.14" r="403.95"/>
	<circle id="svg_102_00000061467083176979839990000016545775886956223650_" class="st2" cx="3187.9" cy="5280.17" r="403.95"/>
	
		<linearGradient id="svg_103_00000054255884439588958590000017167873518492574639_" gradientUnits="userSpaceOnUse" x1="3009.6697" y1="1423.5929" x2="3283.8594" y2="1423.5929">
		<stop  offset="0" style="stop-color:#3A596E"/>
		<stop  offset="1" style="stop-color:#0C1A25"/>
	</linearGradient>
	
		<ellipse id="svg_103_00000121993980870105127400000004390078290268363660_" style="fill:url(#svg_103_00000054255884439588958590000017167873518492574639_);" cx="3146.76" cy="1423.59" rx="137.09" ry="91.89"/>
	<circle id="svg_104_00000077288366316805316690000014543502051917704848_" class="st2" cx="1309.96" cy="4700.14" r="403.95"/>
	
		<line id="svg_105_00000070110063950840063720000013094016747608993196_" class="st4" x1="4666.67" y1="2632.57" x2="4656.56" y2="2632.57"/>
</g>
<linearGradient id="svg_126_00000136393227516683744030000004411799283383569542_" gradientUnits="userSpaceOnUse" x1="7085.0117" y1="6559.9131" x2="7088.0156" y2="6559.9131" gradientTransform="matrix(1703.4 0 0 -900.5505 -12068013 5916353.5)">
	<stop  offset="0" style="stop-color:#3A596E"/>
	<stop  offset="1" style="stop-color:#0C1A25"/>
</linearGradient>
<path id="svg_126_00000007387337591727822080000016264665137545977532_" style="fill:url(#svg_126_00000136393227516683744030000004411799283383569542_);" d="
	M596.37,7615.36c0-40.67,14.39-75.4,43.2-104.21c28.81-28.81,63.53-43.2,104.21-43.2h333.8c62.12,0,120.85,11.87,176.21,35.57
	c55.33,23.73,103.61,56.2,144.88,97.42c41.21,41.24,73.72,89.55,97.42,144.88c23.73,55.36,35.57,114.66,35.57,177.89
	c0,63.26-11.87,122.29-35.57,177.05c-23.73,54.79-56.2,102.79-97.42,144.01c-41.24,41.24-89.55,73.72-144.88,97.42
	c-55.36,23.73-114.09,35.57-176.21,35.57H892.89v211.81c0,41.81-14.39,77.08-43.2,105.89c-28.81,28.81-64.13,43.2-105.89,43.2
	c-40.67,0-75.4-14.39-104.21-43.2c-28.81-28.81-43.2-64.1-43.2-105.89v-974.21H596.37z M892.89,7742.46v360.89h162.66
	c24.84,0,48.3-4.81,70.32-14.39c22.02-9.58,40.94-22.59,56.77-38.96c15.8-16.37,28.51-35.3,38.12-56.77
	c9.58-21.45,14.39-44.61,14.39-69.48c0-24.84-4.81-48.3-14.39-70.32c-9.61-22.02-22.32-41.21-38.12-57.62
	c-15.83-16.37-34.73-29.35-56.77-38.96c-22.02-9.58-45.48-14.39-70.32-14.39L892.89,7742.46L892.89,7742.46z M1938.29,8713.3
	c-58.76-23.73-110.12-57.01-154.19-99.97c-44.07-42.93-78.79-94.02-104.21-153.35c-25.41-59.3-38.12-124.54-38.12-195.71
	s12.71-136.41,38.12-195.71c25.41-59.3,60.14-110.39,104.21-153.35c44.07-42.93,95.44-76.24,154.19-99.97
	c58.73-23.73,121.42-35.57,188.08-35.57c66.63,0,129.32,11.87,188.08,35.57c58.73,23.73,110.12,57.04,154.19,99.97
	c44.07,42.93,78.79,94.02,104.21,153.35c25.41,59.3,38.12,124.54,38.12,195.71s-12.71,136.41-38.12,195.71
	c-25.41,59.3-60.14,110.42-104.21,153.35c-44.07,42.93-95.47,76.24-154.19,99.97c-58.76,23.73-121.45,35.57-188.08,35.57
	C2059.71,8748.89,1997.02,8737.03,1938.29,8713.3z M1913.72,8354.12c11.87,28.24,28.21,52.81,49.14,73.72
	c20.88,20.91,45.45,37.28,73.72,49.14c28.21,11.87,58.16,17.78,89.79,17.78c31.6,0,61.55-5.92,89.79-17.78
	c28.21-11.87,52.78-28.21,73.72-49.14c20.88-20.88,37.28-45.45,49.14-73.72c11.87-28.21,17.78-58.16,17.78-89.79
	c0-31.6-5.92-61.55-17.78-89.79c-11.87-28.21-28.24-52.78-49.14-73.72c-20.91-20.88-45.48-37.28-73.72-49.14
	c-28.24-11.87-58.19-17.78-89.79-17.78c-31.63,0-61.58,5.92-89.79,17.78c-28.24,11.87-52.81,28.24-73.72,49.14
	c-20.91,20.91-37.28,45.48-49.14,73.72c-11.87,28.24-17.78,58.19-17.78,89.79C1895.93,8295.93,1901.88,8325.88,1913.72,8354.12z
	 M3058.25,8606.57c0,36.17-13.01,67.23-38.96,93.18c-25.98,25.98-57.04,38.96-93.18,38.96c-36.17,0-66.93-12.98-92.34-38.96
	c-25.41-25.98-38.12-57.01-38.12-93.18v-686.22c0-36.14,12.71-66.93,38.12-92.34s56.17-38.12,92.34-38.12
	c28.21,0,53.38,7.93,75.4,23.73c22.02,15.83,37.55,33.88,46.59,54.22c7.9-5.65,18.62-12.71,32.2-21.18
	c13.55-8.47,28.81-16.94,45.75-25.41s35.3-15.8,55.06-22.02c19.74-6.19,40.94-9.31,63.53-9.31c21.45,0,42.93,3.39,64.37,10.15
	c21.45,6.79,40.67,16.4,57.62,28.81c16.94,12.44,30.49,28.54,40.67,48.3c10.15,19.77,15.26,42.09,15.26,66.93
	c0,24.87-4.54,47.43-13.55,67.77c-9.04,20.34-20.64,37.58-34.73,51.67c-14.15,14.15-30.22,25.14-48.3,33.04
	c-18.08,7.93-36.17,11.87-54.22,11.87c-19.23,0-35.33-2.55-48.3-7.63c-13.01-5.08-24.57-11.02-34.73-17.78
	c-10.15-6.79-20.07-12.71-29.65-17.78c-9.61-5.08-20.64-7.63-33.04-7.63c-5.68,0-12.44,0.84-20.34,2.55
	c-7.93,1.68-15.26,5.08-22.02,10.15c-6.76,5.08-12.71,13.01-17.78,23.73c-5.08,10.75-7.63,25.14-7.63,43.2v469.3L3058.25,8606.57
	L3058.25,8606.57z M3749.54,8699.75c-25.98-25.98-38.96-57.01-38.96-93.18v-584.54h-30.49c-32.77,0-60.44-11.27-83.03-33.88
	c-22.62-22.59-33.88-49.69-33.88-81.32c0-32.74,11.26-60.41,33.88-83.03c22.59-22.59,50.26-33.88,83.03-33.88h30.49V7640.8
	c0-18.05,3.39-35,10.15-50.83c6.79-15.8,16.1-29.65,27.97-41.51c11.87-11.87,25.98-21.18,42.36-27.97
	c16.37-6.79,33.58-10.15,51.67-10.15c36.14,0,66.93,12.71,92.34,38.12c25.41,25.41,38.12,56.2,38.12,92.34v149.12h62.69
	c31.6,0,58.73,11.29,81.32,33.88c22.59,22.62,33.88,50.29,33.88,83.03c0,31.63-11.29,58.76-33.88,81.32
	c-22.62,22.62-49.72,33.88-81.32,33.88h-62.69v584.54c0,36.17-12.71,67.23-38.12,93.18c-25.41,25.98-56.2,38.96-92.34,38.96
	C3806.56,8738.71,3775.53,8725.73,3749.54,8699.75L3749.54,8699.75z M5221.92,8606.57c0,36.17-12.71,67.23-38.12,93.18
	c-25.41,25.98-56.2,38.96-92.34,38.96c-30.49,0-57.62-10.15-81.32-30.49c-23.73-20.34-38.42-42.36-44.07-66.09
	c-3.39,2.28-11.29,8.47-23.73,18.62c-12.44,10.15-29.65,21.18-51.67,33.04c-22.02,11.87-48.87,22.32-80.48,31.33
	c-31.63,9.04-68.37,13.55-110.12,13.55c-53.11,0-105.89-11.87-158.43-35.57c-52.54-23.73-99.4-56.77-140.64-99.13
	c-41.24-42.36-74.83-92.34-100.81-149.96s-38.96-120.85-38.96-189.76c0-68.88,12.98-132.41,38.96-190.6
	c25.98-58.16,59.57-108.14,100.81-149.96c41.21-41.78,88.11-74.56,140.64-98.26c52.54-23.73,105.32-35.57,158.43-35.57
	c41.78,0,78.49,4.54,110.12,13.55c31.6,9.04,58.46,19.5,80.48,31.33c22.02,11.84,39.23,22.86,51.67,33.04
	c12.41,10.15,20.34,16.4,23.73,18.62c5.65-23.73,20.34-45.75,44.07-66.09c23.73-20.34,50.83-30.49,81.32-30.49
	c36.14,0,66.93,12.71,92.34,38.12c25.41,25.41,38.12,56.2,38.12,92.34V8606.57z M4656.85,8062.67
	c-26.55,11.29-49.72,26.85-69.48,46.59c-19.77,19.77-35.33,42.93-46.59,69.48c-11.29,26.56-16.94,55.06-16.94,85.55
	c0,30.49,5.65,59.03,16.94,85.55c11.26,26.55,26.82,49.71,46.59,69.48c19.74,19.77,42.93,35.33,69.48,46.59
	c26.52,11.29,55.06,16.94,85.55,16.94c30.49,0,58.73-5.65,84.71-16.94c25.98-11.26,48.84-26.82,68.61-46.59
	c19.74-19.74,35.3-42.93,46.59-69.48c11.26-26.53,16.94-55.06,16.94-85.55c0-30.49-5.68-59-16.94-85.55
	c-11.29-26.52-26.85-49.69-46.59-69.48c-19.77-19.74-42.66-35.3-68.61-46.59c-25.98-11.26-54.22-16.94-84.71-16.94
	C4711.91,8045.73,4683.41,8051.41,4656.85,8062.67z M5713.27,8606.57c0,36.17-13.01,67.23-38.96,93.18
	c-25.98,25.98-57.04,38.96-93.18,38.96c-18.08,0-35.03-3.39-50.83-10.15c-15.83-6.79-29.65-16.1-41.51-27.97
	c-11.87-11.87-21.18-25.98-27.97-42.36s-10.15-33.58-10.15-51.67V7598.45c0-36.14,12.71-66.93,38.12-92.34
	c25.41-25.41,56.17-38.12,92.34-38.12c18.05,0,35.3,3.39,51.67,10.15c16.37,6.79,30.49,16.1,42.36,27.97
	c11.87,11.87,21.18,25.71,27.97,41.51c6.79,15.83,10.15,32.77,10.15,50.83V8606.57L5713.27,8606.57z M1983.71,9958.64
	c-10.15,0-20.01-1.86-29.47-5.59c-9.49-3.72-17.96-8.98-25.41-15.74c-7.48-6.76-13.58-15.26-18.29-25.41
	c-4.75-10.15-7.12-21.36-7.12-33.55v-642.48c0-21.69,7.78-40.31,23.37-55.9c15.59-15.59,34.58-23.37,56.92-23.37h460.53
	c14.9,0,27.46,5.08,37.61,15.26c10.15,10.15,15.26,22.71,15.26,37.61c0,14.93-5.08,27.64-15.26,38.12
	c-10.15,10.51-22.71,15.74-37.61,15.74h-420.88v220.61h395.47c14.9,0,27.46,5.26,37.61,15.74c10.15,10.51,15.26,23.22,15.26,38.12
	c0,14.24-5.08,26.62-15.26,37.1c-10.15,10.51-22.71,15.77-37.61,15.77h-395.47v261.25h428.99c14.24,0,26.58,5.26,37.1,15.77
	c10.51,10.51,15.77,23.22,15.77,38.12c0,14.93-5.26,27.46-15.77,37.61c-10.51,10.15-22.86,15.26-37.1,15.26h-468.64V9958.64z
	 M2973.36,9925.08c-11.87,8.14-24.24,14.75-37.1,19.83c-12.89,5.08-27.13,8.65-42.69,10.66c-15.59,2.04-33.55,3.06-53.89,3.06
	c-33.22,0-64.55-7.12-94.02-21.36c-29.47-14.24-55.24-34.39-77.26-60.5c-22.02-26.07-39.5-57.08-52.36-93.03
	c-12.89-35.93-19.32-75.55-19.32-118.96c0-43.38,5.74-83.18,17.27-119.44c11.51-36.26,27.97-67.44,49.29-93.51
	c21.36-26.07,46.92-46.26,76.75-60.5c29.83-14.24,63.02-21.36,99.64-21.36c27.79,0,51.85,3.39,72.18,10.15
	c20.34,6.79,37.28,14.75,50.83,23.88c13.55,9.16,24.21,18.14,32.02,26.95c7.78,8.8,13.37,15.26,16.76,19.32v-240.95
	c0-14.9,5.08-27.46,15.26-37.61c10.15-10.15,22.71-15.26,37.61-15.26c14.9,0,27.61,5.08,38.12,15.26
	c10.51,10.15,15.77,22.71,15.77,37.61v695.35c0,14.93-5.26,27.64-15.77,38.12c-10.51,10.51-23.22,15.77-38.12,15.77
	c-14.93,0-27.46-5.26-37.61-15.77c-10.15-10.48-15.26-23.19-15.26-38.12v-9.13C2997.93,9907.15,2985.22,9916.97,2973.36,9925.08z
	 M2707.03,9742.12c7.12,25.08,17.6,47.1,31.51,66.09c13.88,18.99,30.67,34.24,50.32,45.75c19.65,11.54,42.36,17.27,68.1,17.27
	s48.63-5.74,68.61-17.27c19.98-11.51,36.77-26.76,50.32-45.75c13.55-18.96,23.88-41,31-66.09c7.12-25.05,10.66-50.83,10.66-77.26
	c0-27.1-3.54-53.02-10.66-77.77c-7.12-24.72-17.45-46.77-31-66.09c-13.58-19.31-30.34-34.73-50.32-46.26
	c-20.01-11.51-42.87-17.27-68.61-17.27c-25.77,0-48.45,5.77-68.1,17.27c-19.68,11.54-36.44,26.95-50.32,46.26
	c-13.91,19.32-24.39,41.36-31.51,66.09c-7.12,24.75-10.66,50.68-10.66,77.77C2696.33,9691.29,2699.91,9717.03,2707.03,9742.12z
	 M3664.14,9423.91c0-14.9,5.08-27.61,15.26-38.12c10.15-10.51,22.71-15.77,37.61-15.77c14.9,0,27.61,5.26,38.12,15.77
	c10.48,10.51,15.74,23.22,15.74,38.12v521.51c0,33.88-6.97,64.7-20.85,92.52c-13.91,27.79-32.71,51.67-56.41,71.67
	c-23.73,19.98-51.52,35.57-83.36,46.77c-31.87,11.17-66.09,16.76-102.67,16.76c-39.98,0-74.2-4.93-102.67-14.75
	c-28.48-9.82-52.21-21.36-71.16-34.58c-18.98-13.22-32.89-26.79-41.69-40.67c-8.8-13.91-13.22-24.9-13.22-33.04
	c0-13.58,4.42-25.41,13.22-35.57s19.32-15.26,31.51-15.26c12.2,0,24.39,6.43,36.59,19.32c8.8,10.15,17.63,19.14,26.43,26.95
	c8.8,7.78,18.8,14.39,29.98,19.83c11.17,5.41,24.06,9.49,38.63,12.2c14.57,2.7,32.02,4.06,52.36,4.06c21.69,0,42.03-2.55,61.01-7.63
	c18.95-5.08,35.57-13.22,49.81-24.39c14.24-11.17,25.41-25.41,33.55-42.69c8.14-17.27,12.2-37.79,12.2-61.52v-67.11
	c-6.79,7.48-15.26,15.77-25.41,24.9s-22.35,17.78-36.59,25.92c-14.24,8.14-30.85,15.08-49.81,20.85c-18.98,5.77-41,8.65-66.09,8.65
	c-36.59,0-70.32-5.74-101.14-17.27c-30.85-11.51-57.29-29.14-79.3-52.87c-22.02-23.7-39.14-54.22-51.34-91.5
	c-12.2-37.28-18.29-81.32-18.29-132.17c0-51.49,6.76-95.71,20.34-132.65c13.55-36.92,31.66-67.44,54.4-91.5
	c22.71-24.06,49.14-41.84,79.3-53.38c30.16-11.5,62.18-17.27,96.07-17.27c41.33,0,76.39,6.46,105.23,19.32
	c28.81,12.89,53.02,27.46,72.7,43.71v-9.1H3664.14L3664.14,9423.91z M3380.51,9818.87c29.83,34.91,70.8,52.36,123.01,52.36
	c52.18,0,93-17.45,122.5-52.36c29.47-34.91,44.22-86.24,44.22-154.01s-14.75-119.29-44.22-154.52
	c-29.47-35.24-70.32-52.87-122.5-52.87c-52.21,0-93.18,17.63-123.01,52.87s-44.73,86.75-44.73,154.52
	S3350.68,9783.96,3380.51,9818.87z M3999.62,9696.37c0,1.35,0.51,6.97,1.53,16.76c1.02,9.82,3.39,21.54,7.12,35.09
	c3.72,13.58,9.16,27.97,16.28,43.2c7.12,15.26,16.76,29.32,28.96,42.17c12.2,12.89,27.28,23.55,45.24,32.02
	c17.96,8.47,39.8,12.71,65.58,12.71c21,0,38.96-1.68,53.89-5.08c14.9-3.39,28.12-8.47,39.65-15.26
	c11.51-6.76,22.02-15.41,31.51-25.92c9.49-10.51,18.96-22.86,28.48-37.1c5.41-8.14,11.5-13.88,18.29-17.27
	c6.76-3.39,13.88-5.08,21.36-5.08c12.2,0,23.37,4.42,33.55,13.22c10.15,8.8,15.26,20.01,15.26,33.55c0,8.14-4.42,20.34-13.22,36.59
	c-8.8,16.25-22.86,32.53-42.18,48.78c-19.32,16.28-44.22,30.49-74.71,42.69c-30.49,12.2-67.77,18.29-111.84,18.29
	c-44.73,0-84.74-8.14-119.95-24.39c-35.24-16.28-64.92-38.12-88.95-65.58c-24.06-27.46-42.36-59.48-54.91-96.07
	s-18.8-74.89-18.8-114.87c0-41.33,6.43-80.48,19.32-117.42c12.86-36.92,31.33-68.97,55.39-96.07c24.06-27.1,53.02-48.63,86.93-64.55
	c33.88-15.92,71.82-23.88,113.85-23.88c38.63,0,74.71,5.77,108.26,17.27c33.55,11.54,62.69,28.3,87.41,50.32
	c24.72,22.02,44.22,48.96,58.46,80.81c14.24,31.87,21.36,68.1,21.36,108.77c0,25.08-6.1,44.07-18.29,56.92
	c-12.2,12.89-26.43,19.32-42.69,19.32h-372.16L3999.62,9696.37L3999.62,9696.37z M4095.17,9461.52
	c-17.63,7.48-32.38,16.76-44.22,27.97c-11.87,11.17-21.18,23.55-27.97,37.1c-6.79,13.58-11.87,26.1-15.26,37.61
	c-3.39,11.54-5.44,21.54-6.1,29.98c-0.69,8.47-1.02,13.4-1.02,14.75h329.38c0-21-3.39-41-10.15-59.99
	c-6.79-18.96-17.12-35.75-31-50.32c-13.91-14.57-31.69-26.25-53.38-35.09c-21.69-8.8-47.1-13.22-76.24-13.22
	C4134.14,9450.34,4112.78,9454.07,4095.17,9461.52L4095.17,9461.52z"/>
</svg>
